<?xml version="1.0"?><svg width="1600" height="1200" xmlns="http://www.w3.org/2000/svg">
 <title>castle</title>
 <metadata id="metadata257">image/svg+xml</metadata>
 <g>
  <title>Layer 1</title>
  <g transform="rotate(-0.259579)" id="layer1">
   <path d="m448.38974,87.29763c10.610779,52.638512 16.956757,114.547112 34.427155,158.551643c-10.699829,3.989334 -32.925934,7.860229 -33.811127,7.896347c-11.53009,0.415619 -25.118561,-1.907318 -36.62973,-7.83812c16.988953,-37.328812 24.220123,-105.649887 36.013702,-158.609871z" stroke-linejoin="bevel" stroke="#ff007f" fill="#ffaad4" id="path3071"/>
   <path d="m392.89267,243.644806c9.05835,33.386414 14.936188,75.775513 29.153992,100.831879c-2.911377,3.272644 -16.89798,5.029388 -27.133453,5.20401c-14.339142,-0.214783 -26.341156,-3.88092 -31.153717,-5.575439c14.485077,-28.258667 19.752533,-67.258728 29.133179,-100.460449z" stroke-linejoin="bevel" stroke="#ff007f" fill="#ffaad4" id="path3069"/>
   <path d="m500.145233,316.545227c9.058441,33.386444 14.691681,76.034546 28.909515,101.090942c-4.342468,3.433228 -23.065796,5.862579 -27.484161,5.981018c-14.437683,0.385529 -26.892761,-4.111816 -31.047607,-5.5755c14.485168,-28.260681 20.241577,-68.294708 29.622253,-101.49646z" stroke-linejoin="bevel" stroke="#ff007f" fill="#ffaad4" id="path3059"/>
   <path d="m465.882935,440.759186l33.066254,15.935303l-103.325226,1.519867l33.502258,-16.981384l36.756714,-0.473785z" stroke-linejoin="bevel" stroke="#ff007f" fill="#ffaad4" id="path3031"/>
   <path d="m337.630585,468.10437c9.079254,43.443207 22.129456,90.060486 40.329681,125.789978c-6.222778,1.949585 -29.457275,7.235779 -39.031311,7.78186c-17.953766,1.02002 -38.091095,-6.005005 -43.286591,-8.390198c17.457214,-31.459106 28.464172,-84.049377 41.98822,-125.181641z" stroke-linejoin="bevel" stroke="#ff007f" fill="#ffaad4" id="path3023"/>
   <path d="m559.977234,547.295044c9.081116,43.461243 22.701904,88.464294 40.913452,124.201904c-5.904358,1.84906 -31.286438,7.016968 -37.439087,7.759827c-14.405457,1.734558 -40.087036,-5.372681 -45.409485,-7.816101c17.455261,-31.459045 28.41095,-83.013306 41.93512,-124.14563z" stroke-linejoin="bevel" stroke="#ff007f" fill="#ffaad4" id="path3007"/>
   <path d="m399.757996,670.133545l97.981903,1.800964l51.780121,53.248962l-206.656067,-0.212769l56.894043,-54.837158z" stroke-linejoin="bevel" stroke="#ff007f" fill="#ffaad4" id="path2977"/>
   <path d="m344.645691,945.677673l201.970459,0l51.459839,35.530762l-303.487457,1.284973l50.057159,-36.815735z" stroke-linejoin="bevel" stroke="#ff007f" fill="#ffaad4" id="path2915"/>
   <path d="m615.070557,796.907471c15.787292,48.096985 25.406799,101.582825 48.271667,146.567871c-7.63678,4.386963 -36.25824,11.600647 -81.072571,3.97522c-5.733704,-0.977722 -12.125183,-2.563782 -17.747131,-4.256287c22.150269,-44.30249 34.173157,-98.193848 50.548035,-146.286804z" stroke-linejoin="bevel" stroke="#ff007f" fill="#ffaad4" id="path2941"/>
   <path d="m276.033905,798.192383c15.787262,48.097046 25.291107,100.637146 48.156006,145.624329c-15.965485,9.339966 -77.109116,7.767822 -99.202545,-0.114563c22.148407,-44.302429 34.671692,-97.416748 51.046539,-145.509766z" stroke-linejoin="bevel" stroke="#ff007f" fill="#ffaad4" id="path2939"/>
   <path d="m444.432037,1006.835083c-20.853851,8.844116 -45.748779,19.537109 -53.855652,43.756348c-1.980713,30.569702 -1.268066,61.362183 -2.285919,92.01416c37.465607,0.204834 75.520691,-0.174561 112.548492,-0.056152c-0.553467,-31.063721 0.799866,-62.279663 -0.904114,-93.255005c-8.58078,-23.644897 -34.764618,-34.860168 -55.502808,-42.459351z" stroke-linejoin="bevel" stroke="#ff007f" fill="#ffaad4" id="path2881"/>
   <path d="m427.659119,986.9104l-18.236206,9.008606l13.184814,21.11731c5.91571,-3.292664 10.72641,-5.63147 14.780792,-7.320129l-9.729401,-22.805786z" stroke-linejoin="bevel" stroke="#ff007f" fill="#ffaad4" id="path2907"/>
   <path d="m461.311066,987.472595l-8.984467,21.061035l14.56662,8.334106l12.229462,-20.328247l-17.811615,-9.066895z" stroke-linejoin="bevel" stroke="#ff007f" fill="#ffaad4" id="path22619"/>
   <path d="m433.453552,996.820496l5.529022,12.277283c2.553223,-1.013916 5.955566,-2.308899 5.955566,-2.308899l4.784058,1.800964l6.380157,-11.544495l-22.648804,-0.224854z" stroke-linejoin="bevel" stroke="#ff007f" fill="#ffaad4" id="path22617"/>
   <path d="m414.315125,1004.817383l-15.311554,11.713074l10.313202,9.066833l0,0.056152c2.695374,-2.063904 5.438049,-4.065674 8.241455,-5.800293c1.194122,-0.740723 2.323792,-1.290771 3.508484,-1.971497l-6.751587,-13.06427z" stroke-linejoin="bevel" stroke="#ff007f" fill="#ffaad4" id="path22615"/>
   <path d="m473.912079,1005.154663l-6.114746,12.220825c1.999695,1.068298 2.845062,1.188782 4.892151,2.421448c3.320892,2.001709 6.637939,4.27655 9.782532,6.699768l8.610992,-9.572815l-17.170929,-11.769226z" stroke-linejoin="bevel" stroke="#ff007f" fill="#ffaad4" id="path22613"/>
   <path d="m500.014404,1008.589844l-17.650482,18.414917c2.828125,2.282837 9.803345,8.54895 10.049713,8.839966l20.893616,-9.121094l-13.292847,-18.133789z" stroke-linejoin="bevel" stroke="#ff007f" fill="#ffaad4" id="path22611"/>
   <path d="m389.115021,1008.252563l-12.546051,19.48291l20.891754,9.3479c0.447266,-0.568115 7.100403,-7.763672 10.421234,-10.415894l-18.766937,-18.414917z" stroke-linejoin="bevel" stroke="#ff007f" fill="#ffaad4" id="path22609"/>
   <path d="m505.81076,1030.833374l-13.290955,5.856689c3.616486,4.667847 7.172455,10.498413 7.761963,16.105957l9.94162,0.112305l-4.412628,-22.074951z" stroke-linejoin="bevel" stroke="#ff007f" fill="#ffaad4" id="path22607"/>
   <path d="m384.330872,1031.84729l-3.243134,22.131348l8.984467,0.056152c0.58374,-5.641602 2.896332,-10.799683 6.272064,-15.485718l-12.013397,-6.701782z" stroke-linejoin="bevel" stroke="#ff007f" fill="#ffaad4" id="path22605"/>
   <path d="m521.175354,1054.147095l-21.74469,-0.562012c0.003754,0.170654 1.222595,53.270874 1.222595,53.270874l19.671021,0l0.851074,-18.131836l-20.415955,0.337524l0,-0.224976l9.357758,0l0.636902,-17.344727l-11.058075,0.449585l1.063416,-1.126221l19.56488,0l0.851074,-16.668213z" stroke-linejoin="bevel" stroke="#ff007f" fill="#ffaad4" id="path22603"/>
   <path d="m368.913208,1054.484497l0.849152,17.56958l19.777252,-1.067993l0.744934,-16.049927l-21.371338,-0.45166z" stroke-linejoin="bevel" stroke="#ff007f" fill="#ffaad4" id="path22601"/>
   <path d="m390.178345,1072.449585l-10.845795,0.056396l1.169495,17.400757l8.719147,0.168701l0.957153,-17.625854z" stroke-linejoin="bevel" stroke="#ff007f" fill="#ffaad4" id="path22599"/>
   <path d="m368.699066,1090.977051l1.063293,17.117798l19.08725,0l1.169525,-17.117798l-21.320068,0z" stroke-linejoin="bevel" stroke="#ff007f" fill="#ffaad4" id="path22597"/>
   <path d="m500.014404,1107.9823l0.744995,32.942627l21.479309,0.112671l-0.479553,-15.485596l-21.636688,-0.224854l0.636932,-0.449829l9.357758,0l0.849213,-17.344604l-10.951965,0.449585z" stroke-linejoin="bevel" stroke="#ff007f" fill="#ffaad4" id="path22595"/>
   <path d="m379.651001,1109.052368l0.320313,17.063721l8.557983,0l1.169464,-17.120117l-10.04776,0.056396z" stroke-linejoin="bevel" stroke="#ff007f" fill="#ffaad4" id="path22593"/>
   <path d="m368.966278,1126.790771l-1.489807,14.305054l20.787476,-0.058228l0.691803,-14.47168l-19.989471,0.224854z" stroke-linejoin="bevel" stroke="#ff007f" fill="#ffaad4" id="path22591"/>
   <path d="m463.250153,252.466705l2.738922,188.246277l-37.313995,-0.670593l0.26532,-61.663269l10.739685,-0.957672l0,-9.629028l10.580475,0l0,-11.48819l-21.479309,-1.182587l0,-101.476395c5.652252,1.252823 11.313965,1.678467 16.960541,1.521866c4.854279,-0.126495 17.189911,-2.632111 17.508362,-2.700409z" stroke-linejoin="bevel" stroke="#ff007f" fill="#ffaad4" id="path6970"/>
   <path d="m412.755157,348.480164l0,100.936249l-16.223236,8.169464l-1.214966,1.26889l17.186127,0.704742l0.519318,52.389557c-0.432098,2.391144 -26.733521,3.694122 -33.701233,-2.668274l-0.10614,-159.929352c0.250214,0.044189 11.113068,1.439545 16.215576,1.40744c3.383453,-0.036133 15.448059,-1.796936 17.324554,-2.278717z" stroke-linejoin="bevel" stroke="#ff007f" fill="#ffaad4" id="path6958"/>
   <path d="m379.666138,510.93512c9.522827,4.581604 21.249969,4.686035 31.944183,1.068115l0.37146,44.141846c-14.458588,-13.088379 -24.792542,-29.256592 -32.315643,-45.209961z" stroke-linejoin="bevel" stroke="#ff007f" fill="#ffaad4" id="path6914"/>
   <path d="m484.382568,457.816742l-0.39801,103.305511l-12.220001,0l-20.823517,0.445618l0.373413,9.723511l10.713135,1.208618l0.026581,8.898254l21.930389,0.841187l0,88.072876l-72.053955,-0.03418l0.928833,-110.565308l-0.532654,-100.406342l72.055786,-1.489746z" stroke-linejoin="bevel" stroke="#ff007f" fill="#ffaad4" id="path6932"/>
   <path d="m447.792664,600.094055c0.31842,0.066345 17.256226,5.910889 17.483734,13.853394l0.373413,26.564209l-32.740265,-0.95166l0.845367,-24.833557c-0.420776,-7.239807 13.886108,-14.588135 14.03775,-14.632385z" stroke-linejoin="bevel" stroke="#ff007f" fill="#ffaad4" id="path6896"/>
   <path d="m482.172485,422.245972c5.705353,3.551575 33.873718,1.311005 34.385498,1.208618l0.159241,158.036072c-9.818481,3.141968 -23.661072,6.308167 -32.901398,2.784668l0,-127.002655l15.266083,-1.186554l-16.117126,-6.792084l-0.792297,-27.048065z" stroke-linejoin="bevel" stroke="#ff007f" fill="#ffaad4" id="path6938"/>
   <path d="m359.871826,598.542236l0,16.039612l-11.192596,-0.536011l0.37146,10.167114l-10.498901,0.419556l0.024597,10.568787l21.295441,-0.341431l0.792358,71.322449l-17.862793,18.531311l17.862793,0.419617l-1.019714,36.719238c-22.27356,8.988586 -46.975128,0.042236 -48.144653,-0.584167l0,-161.322754c15.157959,3.322876 32.649231,1.764832 48.372009,-1.40332z" stroke-linejoin="bevel" stroke="#ff007f" fill="#ffaad4" id="path6898"/>
   <path d="m311.604034,759.521606c8.605408,6.514954 34.66983,6.796143 47.464142,1.630188l-0.293823,50.474243c-20.167603,-9.231506 -38.638824,-30.11792 -47.170319,-52.104431z" stroke-linejoin="bevel" stroke="#ff007f" fill="#ffaad4" id="path6852"/>
   <path d="m533.960205,724.312134l-0.532654,111.306152l0.532654,109.653992l-175.494751,0l2.71048,-219.763611l172.784271,-1.196533z" stroke-linejoin="bevel" stroke="#ff007f" fill="#ffaad4" id="path6874"/>
   <path d="m583.143494,676.672852l-0.396179,157.98175l0.396179,2.616089c-5.350891,2.092102 -12.282532,3.60376 -17.134888,4.364746c-10.606995,1.656433 -20.489929,-0.744812 -31.421082,-4.924927l0,-110.316406l15.099243,0l0.583862,-1.575989l-15.895325,-16.27478l0,-30.240295c15.173157,3.248535 33.049133,1.590149 48.768188,-1.630188z" stroke-linejoin="bevel" stroke="#ff007f" fill="#ffaad4" id="path6878"/>
   <path d="m583.422119,981.842896l-1.588379,85.563232l-0.4776,30.288574l-10.572937,-0.419556l-21.363708,0.010132l0.227539,9.958374l-11.179504,1.206421l-0.371399,10.666992l11.323364,-0.626465l-0.227417,7.697876l22.442261,2.172241l0.227356,-10.835693l8.86322,1.60022l0.767639,22.291626l-57.33374,-0.666382l-1.489868,-15.99353l-11.005066,0l0.904175,-15.654297l8.681213,-1.465576l0.623596,-18.920776l-10.580475,-0.168823l-0.540222,-16.772583l9.52475,-0.724731l2.498108,-18.543335l-12.227509,0.168701l-3.296265,-21.454468l7.443512,-4.112061l-14.67276,-19.990845l-8.764557,10.233398l-16.541687,-12.598511l5.475952,-8.615112l-19.108093,-8.350159l-4.382233,9.203369l-23.295227,-0.403381l-4.943329,-11.2052l-19.434143,10.827759l4.01651,8.317993l-14.51355,11.544495l-9.888641,-9.968567l-11.909149,21.577026l7.481384,3.660278l-3.842072,23.78125l-11.096008,0l0.454865,18.123901l8.383667,0.489868l1.595978,16.459351l-10.663879,0.483887l0,17.890625l9.979553,0.481934l0.22937,17.427002l-11.004974,0.482056l-1.033081,15.461426l-57.365967,-0.425537l-0.31842,-130.486206l11.058014,-0.562195l-0.15921,-9.067017l10.527374,0l-0.373352,-10.699036l-21.105988,-0.789063l0,-5.800232l273.94101,-2.750671z" stroke-linejoin="bevel" stroke="#ff007f" fill="#ffaad4" id="path7077"/>
   <path d="m242.840637,948.647095c16.797516,3.437317 61.020416,4.166077 68.263,0.297302l-1.19223,21.239685l-14.924805,12.203003l0.022736,0.965759l13.86142,-0.056274l0.828369,158.045959c-21.547607,6.214111 -49.653442,8.804077 -65.870956,0.540161l-0.987534,-193.235596z" stroke-linejoin="bevel" stroke="#ff007f" fill="#ffaad4" id="path6814"/>
   <path d="m581.284119,948.177429c22.377625,4.730225 46.685059,5.24823 68.25531,0.19873l-1.302124,191.880432c-19.773438,7.936401 -45.479614,10.247314 -66.51532,1.029907l-0.356445,-32.816284l1.381775,-126.561096l15.925659,-0.720703l0.707031,-0.724854l-18.546997,-12.606384l0.451111,-19.679749z" stroke-linejoin="bevel" stroke="#ff007f" fill="#ffaad4" id="path6816"/>
   <path d="m535.654724,1142.075562l-0.265381,15.84082l-176.440521,-0.839111l-0.216125,-14.048218l176.922028,-0.953491z" stroke-linejoin="bevel" stroke="#ff007f" fill="#ffaad4" id="path6718"/>
   <path d="m326.578156,1157.679565l240.319366,0.421509l-0.397949,20.822144l-239.921417,0.421753l0,-21.665405z" stroke-linejoin="bevel" stroke="#ff007f" fill="#ffaad4" id="path6716"/>
   <path d="m549.626099,1097.311401l0.106201,10.417969l20.573242,0.451904l-0.212341,-10.305786l-20.467102,-0.564087zm21.318237,1.013916l-0.4245,9.628906l10.79071,-0.674561l0.479614,-9.404175l-10.845825,0.449829zm-32.376282,9.741455l-0.532593,10.588867l21.318176,-0.901611l0.638733,-9.912231l-21.424316,0.224976zm21.477417,0.226685l-0.424622,9.235474l21.424316,0.225098l0.424683,-9.460571l-21.424377,0zm-10.100891,9.685181l-0.532593,9.741455l21.532349,-0.337036l-0.638794,-9.854126l-20.360962,0.449707z" stroke-linejoin="bevel" stroke="#ff007f" fill="#ffaad4" id="path6742"/>
   <path d="m309.287781,991.237061l-0.21228,9.460327l20.999756,0l0.212341,-8.785828l-20.999817,-0.6745zm-0.850983,10.13501l0.426422,8.95459l10.897003,0l0.214172,-9.179504l-11.537598,0.224915z" stroke-linejoin="bevel" stroke="#ff007f" fill="#ffaad4" id="path6804"/>
   <path d="m482.496613,827.041321l0,10.586792l10.047821,0l0.426422,9.685181l21.742828,0.168762l-0.530701,-9.629028l10.739624,-0.224915l0.159302,-9.797729l-21.373199,0.618347l-21.212097,-1.40741z" stroke-linejoin="bevel" stroke="#ff007f" fill="#ffaad4" id="path6836"/>
   <path d="m403.118622,739.365967l1.169464,9.743591l9.835602,0.449646l0.4245,9.460449l21.532471,0.16864l-0.532654,-9.854004l-10.686615,-0.449646l0,-9.179321l-21.742767,-0.339355z" stroke-linejoin="bevel" stroke="#ff007f" fill="#ffaad4" id="path6866"/>
   <path d="m348.487701,614.146179l0.530792,10.359924l10.792755,-0.449707l0.424622,-8.502747l-11.748169,-1.407471zm-9.570099,10.811584l-0.371521,10.361877l21.477417,-0.676514l0.212372,-9.910156l-21.318268,0.224792z" stroke-linejoin="bevel" stroke="#ff007f" fill="#ffaad4" id="path6892"/>
   <path d="m450.776154,561.999573l0.21228,9.404236l20.787476,0l-0.214233,-9.404236l-20.785522,0zm21.795837,-0.224854l0,9.404175l11.217316,0.449768l0.214203,-9.629089l-11.431519,-0.224854zm-10.525421,10.305603l0.21225,8.783936l21.424347,0l0,-9.010742l-21.636597,0.226807z" stroke-linejoin="bevel" stroke="#ff007f" fill="#ffaad4" id="path6908"/>
   <path d="m428.747101,357.039063l-0.636871,9.685242l21.212128,0.224823l0.638733,-9.910065l-21.213989,0zm10.421204,10.134918l-11.270294,0.620483l0.796021,9.01059l10.262024,0l0.21225,-9.631073z" stroke-linejoin="bevel" stroke="#ff007f" fill="#ffaad4" id="path6956"/>
   <path d="m445.709564,293.691315c0.20285,0.064209 10.464813,4.374878 11.687408,9.626984l-0.210388,21.388336l-4.939575,-0.391541l-9.473541,0l-7.432037,-1.176483l0.212311,-19.428741l0,-0.056274l0,-0.056183c0.638702,-5.69989 9.907501,-9.829803 10.155823,-9.906097z" stroke-linejoin="bevel" stroke="#ff007f" fill="#ffaad4" id="path6966"/>
   <path d="m446.295227,301.965149c0.183899,0.06424 4.308441,2.68634 4.29892,3.549683l1.061462,18.296387l-9.613739,-0.39151l-0.053101,-17.513428c-0.003784,-0.4216 4.090393,-3.868866 4.306458,-3.941132z" stroke-linejoin="bevel" stroke="#ff007f" fill="#ffaad4" id="path6964"/>
   <path d="m432.422455,323.261047l26.996979,1.568054l-0.001923,7.54303l-26.62735,0.389435l-0.367706,-9.500519z" stroke-linejoin="bevel" stroke="#ff007f" fill="#ffaad4" id="path6960"/>
   <path d="m446.189117,382.499023c0.204742,0.06424 11.947052,5.15976 12.058868,8.056976l-0.579956,22.566803l-21.105927,0.391479l0.214203,-20.605255l0,-0.056183l-0.74115,-1.624237c-0.102386,-1.385345 9.907532,-8.65329 10.153961,-8.729584z" stroke-linejoin="bevel" stroke="#ff007f" fill="#ffaad4" id="path6950"/>
   <path d="m447.195587,390.720612c0.183838,0.06424 5.000214,3.523529 4.990723,4.384888l-0.424591,17.513367l-9.609924,0l-0.053009,-17.513367c-0.003845,-0.4216 4.880768,-4.312622 5.096802,-4.384888z" stroke-linejoin="bevel" stroke="#ff007f" fill="#ffaad4" id="path6948"/>
   <path d="m432.900055,413.2453l27.370422,0.391479l0,7.936554l-27.740021,0.387482l0.369598,-8.715515z" stroke-linejoin="bevel" stroke="#ff007f" fill="#ffaad4" id="path6940"/>
   <path d="m395.891296,400.793365c0.204681,0.066284 7.134521,1.63028 10.208893,7.273987l0.900391,22.173279l-22.216705,0.393524l0.214203,-24.638733c-0.102386,-1.38736 10.646759,-5.123779 10.893219,-5.202057z" stroke-linejoin="bevel" stroke="#ff007f" fill="#ffaad4" id="path6944"/>
   <path d="m396.158508,409.015045c0.183868,0.06427 4.259094,1.955505 4.249664,2.818817l0.316467,18.296356l-8.129608,-0.39151l-1.163788,-17.904846c-0.003784,-0.421631 4.51123,-2.744598 4.727264,-2.818817z" stroke-linejoin="bevel" stroke="#ff007f" fill="#ffaad4" id="path6942"/>
   <path d="m381.862976,430.756653l27.73999,-0.391449l-0.369568,8.715485l-27.370422,0l0,-8.324036z" stroke-linejoin="bevel" stroke="#ff007f" fill="#ffaad4" id="path6936"/>
   <path d="m486.490387,494.949707l27.950348,0.341278l-1.321167,7.761871l-26.259644,-0.393524l-0.369537,-7.709625z" stroke-linejoin="bevel" stroke="#ff007f" fill="#ffaad4" id="path6922"/>
   <path d="m448.312012,501.199646c0.318451,0.068298 16.886688,2.77475 16.374908,13.853333l1.11261,24.996216l-32.368744,-0.168762l-1.0065,-27.18457c1.42923,-8.024811 15.736084,-11.452057 15.887726,-11.496216z" stroke-linejoin="bevel" stroke="#ff007f" fill="#ffaad4" id="path6918"/>
   <path d="m429.128143,540.452698l42.090485,0.391479l-0.741089,7.934509l-39.869049,-1.176575l-1.480347,-7.149414z" stroke-linejoin="bevel" stroke="#ff007f" fill="#ffaad4" id="path6912"/>
   <path d="m449.428467,509.421326c4.2724,1.244751 7.729675,4.011414 7.706909,6.085388l-0.475739,23.536499l-14.674652,0l-0.90036,-23.92804c-0.009491,-1.027893 4.99649,-6.346375 8.343842,-5.693848z" stroke-linejoin="bevel" stroke="#ff007f" fill="#ffaad4" id="path6916"/>
   <path d="m500.518585,463.980469c5.388824,2.810822 8.24527,2.023773 11.319733,10.805634l-0.212311,20.211731l-21.843231,-0.785004l-0.52887,-22.285767c1.379913,-4.914886 8.055695,-7.868256 11.264679,-7.946594z" stroke-linejoin="bevel" stroke="#ff007f" fill="#ffaad4" id="path6928"/>
   <path d="m500.785889,472.987183c0.183838,0.064209 4.257202,1.563995 4.247711,2.425293l-0.053101,19.081451l-9.238403,-0.783051l-0.053101,-17.906891c-0.003754,-0.421631 4.880768,-2.744507 5.096893,-2.816803z" stroke-linejoin="bevel" stroke="#ff007f" fill="#ffaad4" id="path6924"/>
   <path d="m449.278748,608.707275c0.198944,0.068298 7.360016,4.794495 7.33728,6.870544l0.263489,23.927979l-16.155029,0.78302l-0.15918,-23.926025c-0.011383,-1.027954 8.474579,-7.577271 8.71344,-7.655518z" stroke-linejoin="bevel" stroke="#ff007f" fill="#ffaad4" id="path6894"/>
   <path d="m274.439819,993.06604c0.263489,0.108582 14.02832,8.155457 15.762634,10.193237c1.736237,2.040039 3.178619,5.692017 3.269653,7.940613l0.744904,25.058411l-38.942154,0.367554l0.610321,-26.805298c0.03035,-2.212524 1.476608,-6.509094 3.216599,-8.446472c1.740051,-1.937439 15.029114,-8.199463 15.338043,-8.308044z" stroke-linejoin="bevel" stroke="#ff007f" fill="#ffaad4" id="path6798"/>
   <path d="m251.101059,1036.597778l2.81665,0l43.967026,0.365356l-0.37149,10.277466l-47.661316,-0.254883l1.24913,-10.387939z" stroke-linejoin="bevel" stroke="#ff007f" fill="#ffaad4" id="path6760"/>
   <path d="m593.71637,1036.089722l2.81665,0l45.003906,0.365356l-1.036865,9.488525l-48.218506,0.365479l1.434814,-10.21936z" stroke-linejoin="bevel" stroke="#ff007f" fill="#ffaad4" id="path6762"/>
   <path d="m617.400146,992.560303c0.263489,0.106262 4.469482,1.782776 8.984436,4.786194c2.327576,1.548096 4.69696,3.367065 6.433105,5.405029c1.736328,2.039734 4.905579,4.960938 4.996582,7.209595l-0.291931,26.522156l-38.9422,0l0.265381,-28.26886c0.030273,-2.210632 1.131531,-4.312622 2.871582,-6.25c1.740051,-1.937561 4.109314,-3.638123 6.486267,-5.06958c4.59082,-2.764587 8.887756,-4.228271 9.196777,-4.334534z" stroke-linejoin="bevel" stroke="#ff007f" fill="#ffaad4" id="path6800"/>
   <path d="m618.4104,1000.189575c4.696899,1.166382 10.614563,4.308472 10.580383,7.406372l1.859497,28.154541l-24.56134,0l0.132629,-27.365417c0,0 4.835266,-6.651611 11.988831,-8.195496z" stroke-linejoin="bevel" stroke="#ff007f" fill="#ffaad4" id="path6794"/>
   <path d="m429.200165,640.575867l41.201538,1.096313l-0.34494,8.221558l-40.511658,-0.730774l-0.34494,-8.587097z" stroke-linejoin="bevel" stroke="#ff007f" fill="#ffaad4" id="path6888"/>
   <path d="m316.333191,683.372559l40.668945,0.592285l-0.504211,7.994751l-40.511566,0l0.346832,-8.587036z" stroke-linejoin="bevel" stroke="#ff007f" fill="#ffaad4" id="path6876"/>
   <path d="m334.726746,644.095459c0.320313,0.066284 4.065765,0.877441 8.029114,2.983521c4.132141,2.198364 9.155121,6.404602 9.382568,11.600586l0.02652,24.917908l-32.270203,-0.53418l-0.957123,-25.903625c-0.049347,-2.142151 4.173737,-9.046814 6.035156,-10.1651c3.644897,-2.190369 9.604248,-2.856934 9.753967,-2.899109z" stroke-linejoin="bevel" stroke="#ff007f" fill="#ffaad4" id="path6884"/>
   <path d="m335.84314,651.949646c0.199036,0.068237 8.396851,3.698181 8.374176,5.772156l0.2388,25.678833l-16.746338,-0.365295l-0.159241,-26.044189c-0.011322,-1.027954 8.055695,-4.963196 8.292603,-5.041504z" stroke-linejoin="bevel" stroke="#ff007f" fill="#ffaad4" id="path6882"/>
   <path d="m538.770935,767.251221l39.819641,0.365479l0.691895,8.221619l-40.164734,0.365479l-0.346802,-8.952576z" stroke-linejoin="bevel" stroke="#ff007f" fill="#ffaad4" id="path6846"/>
   <path d="m557.16626,727.972229c0.318481,0.068237 4.065735,0.877258 8.027222,2.985474c4.133972,2.198425 8.120178,5.671753 8.347534,10.867859l1.063477,25.650635l-32.617065,-0.168762l0.079651,-27.00177c-0.049316,-2.142273 5.902466,-7.948669 7.761902,-9.066956c3.644958,-2.190369 7.185669,-3.222351 7.33728,-3.266479z" stroke-linejoin="bevel" stroke="#ff007f" fill="#ffaad4" id="path6870"/>
   <path d="m558.282715,735.82843c0.199036,0.068237 7.704956,4.794434 7.682312,6.870361l0.23877,24.21521l-16.746399,0.365417l0.877686,-26.044189c-0.011414,-1.028015 7.710693,-5.328491 7.947632,-5.406799z" stroke-linejoin="bevel" stroke="#ff007f" fill="#ffaad4" id="path6868"/>
   <path d="m376.275146,800.139832l46.783722,1.096191l0,9.488525l-47.475494,0.73291l0.691772,-11.317627z" stroke-linejoin="bevel" stroke="#ff007f" fill="#ffaad4" id="path6838"/>
   <path d="m400.303925,757.341248c0.26532,0.106323 4.469421,1.782837 8.986328,4.786377c2.325714,1.547974 4.69696,3.367004 6.431305,5.406738c1.736267,2.037842 2.83371,4.228271 2.924683,6.474915l0.744965,27.254944l-38.59726,-0.365479l0.957214,-27.903259c0.028473,-2.21051 1.129669,-4.312744 2.86972,-6.250122c1.73999,-1.9375 4.109344,-3.635986 6.486298,-5.067566c4.590759,-2.766602 8.889648,-4.228271 9.196747,-4.336548z" stroke-linejoin="bevel" stroke="#ff007f" fill="#ffaad4" id="path6854"/>
   <path d="m400.624237,765.337952c0.204651,0.068298 2.66687,0.885376 5.316742,2.590088c2.755981,1.772766 5.295929,4.280334 5.261749,7.376282l1.514435,25.9599l-24.214355,-0.365479l1.169464,-25.538147l0,-0.056274c-0.017059,-1.537964 0.579987,-2.913208 1.594055,-4.166016c1.015961,-1.254761 2.395874,-2.322998 3.828857,-3.210266c2.733246,-1.696655 5.284546,-2.511841 5.529053,-2.590088z" stroke-linejoin="bevel" stroke="#ff007f" fill="#ffaad4" id="path6848"/>
   <path d="m492.677155,756.355347c0.263489,0.106445 4.469482,1.782898 8.984436,4.786438c2.327606,1.547974 4.698853,3.367004 6.433167,5.406799c1.736267,2.037842 2.83371,4.22821 2.924713,6.475037l0.744934,26.523987l-37.907288,0l0.26535,-27.537903c0.030334,-2.210632 1.131592,-4.312683 2.871613,-6.250183c1.73999,-1.937439 4.109375,-3.635986 6.486298,-5.067444c4.59079,-2.766724 8.887787,-4.228333 9.196777,-4.336731z" stroke-linejoin="bevel" stroke="#ff007f" fill="#ffaad4" id="path6856"/>
   <path d="m493.342377,763.619385c0.204742,0.070129 2.666901,0.887329 5.316864,2.59198c2.75592,1.772766 5.295807,4.278381 5.261749,7.376404l0.479553,25.227051l-23.871399,0l1.861298,-25.170837l0,-0.056213c-0.017059,-1.539978 0.580078,-2.913208 1.594116,-4.168152c1.015961,-1.252808 2.395813,-2.320984 3.828796,-3.208252c2.733307,-1.696594 5.284515,-2.511719 5.529022,-2.59198z" stroke-linejoin="bevel" stroke="#ff007f" fill="#ffaad4" id="path6850"/>
   <path d="m468.648407,799.154175l47.473602,0.730713l-0.34491,9.488403l-47.128693,-0.365356l0,-9.85376z" stroke-linejoin="bevel" stroke="#ff007f" fill="#ffaad4" id="path6840"/>
   <path d="m420.401459,914.425476l46.093689,0l-0.346832,9.488586l-46.091888,0.365356l0.345032,-9.853943z" stroke-linejoin="bevel" stroke="#ff007f" fill="#ffaad4" id="path6820"/>
   <path d="m443.740173,870.896057c0.263428,0.106445 4.469452,1.782837 8.984467,4.786438c2.327667,1.547852 4.698853,3.366821 6.433167,5.406738c1.736298,2.037964 4.215515,5.692017 4.306549,7.938477l-0.291931,25.791321l-38.252197,-0.730835l0.26535,-27.538025c0.030334,-2.210327 1.131561,-4.312378 2.871613,-6.249878c1.740021,-1.9375 4.109344,-3.635986 6.486237,-5.067505c4.59079,-2.766602 8.887817,-4.228394 9.196747,-4.336731z" stroke-linejoin="bevel" stroke="#ff007f" fill="#ffaad4" id="path6824"/>
   <path d="m444.750458,878.525452c0.204742,0.070313 2.666962,0.887451 5.316772,2.59198c2.757904,1.772766 5.297882,4.278442 5.263702,7.376282l0.822632,25.594482l-24.906342,-0.367371l2.551331,-25.170776l0,-0.056335c-0.01709,-1.539917 0.579956,-2.913086 1.595978,-4.167847c1.014038,-1.252991 2.395844,-2.320923 3.826935,-3.208435c2.735077,-1.696533 5.284515,-2.511841 5.528992,-2.59198z" stroke-linejoin="bevel" stroke="#ff007f" fill="#ffaad4" id="path6822"/>
   <path d="m275.795074,1002.161011c0.204681,0.068359 10.267731,3.943237 10.580475,9.601013l0.13269,25.229187l-23.87146,0.365356l0.479553,-24.80542l0,-0.056274c1.709717,-8.858032 12.434235,-10.253418 12.678741,-10.333862z" stroke-linejoin="bevel" stroke="#ff007f" fill="#ffaad4" id="path6790"/>
   <path d="m447.834381,83.808205c-12.498596,54.155968 -18.98111,122.732613 -36.417419,160.266212l-0.532654,2.929306c5.506348,2.915192 11.029724,4.860672 16.534088,6.193787l0,187.917023l-14.035889,7.039001l0,-99.223694c3.290527,-0.959656 6.473022,-1.549957 9.41095,-3.154144l0.318481,-1.857147c-13.529785,-27.268951 -20.025543,-70.617676 -30.037323,-105.925507c0,0 -16.977631,79.929504 -31.153748,105.981689l0.636902,1.688568c5.047546,1.827026 10.148224,2.887115 15.470703,3.941101l0.373383,162.238251c0,0 15.201569,30.878784 33.015106,46.121399l0,111.049316l-12.068359,-0.224854l-37.533875,36.265503l-0.744934,-105.644409c6.148865,-1.307068 12.273102,-2.81488 18.287384,-4.730286l0.479553,-1.294922c-18.800995,-36.552673 -31.860748,-81.383179 -41.042358,-126.19754l-0.638702,-3.041748l-0.957245,2.929291c-14.208344,42.226501 -24.570862,94.606018 -42.477203,126.253662l0.371521,1.295105c5.117676,2.425232 10.423126,4.057556 15.789124,5.350525l-0.318451,161.111816c8.609192,23.685181 27.207397,41.050049 47.528687,52.25708l-2.073669,131.210876l-11.111237,0l-33.068146,24.271362l0.05307,-19.372437c4.526398,-1.174561 9.003479,-2.565979 13.397156,-4.28064l0.479553,-1.294922c-23.450592,-45.673645 -32.808472,-98.308167 -49.283783,-147.652039l-1.594116,0c-17.040131,49.331848 -28.247986,102.646973 -50.984009,147.652039l0.477661,1.294922c5.748917,1.760864 11.600235,2.919373 17.438202,4.168152l0,138.587219l0.477661,54.678467c17.377533,9.157104 46.019806,7.135376 68.316132,0.339478l47.263153,-0.227173l0,14.417725l-32.482391,-1.463867l-0.161163,25.002319l69.432526,-1.632446l111.593201,0l61.882874,1.068359l-0.532654,-23.538574l-30.249573,0.564209l-0.691895,-14.530029l44.818176,-0.168701c21.77301,9.592773 48.176758,7.368408 68.422241,-0.901489l0.212219,-34.799927l0.318359,-157.676697c4.941528,-1.230713 9.833679,-2.696289 14.621643,-4.561523l0.424561,-1.295044c-23.450562,-45.675537 -32.808411,-98.310242 -49.283691,-147.654114l-1.594116,0c-17.040222,49.33197 -28.248047,102.646912 -50.98407,147.654114l0.530701,1.295044c5.347046,1.636292 10.790894,2.688354 16.215698,3.884888l-0.053101,18.471069l-32.961975,-22.299744l-11.696899,0l0,-56.14386c19.269226,-12.150879 35.79187,-29.276855 47.901978,-50.456238l0.530762,-2.704468l-0.159241,-158.126404c5.982056,-1.290833 11.950867,-2.752502 17.809753,-4.617737l0.532532,-1.294922c-18.800964,-36.554688 -31.862549,-81.326904 -41.044189,-126.141296l-1.647156,-0.112549c-14.208252,42.22644 -24.57074,94.549805 -42.479004,126.19751l0.426392,1.295105c5.254272,2.487488 10.703674,4.163879 16.215637,5.46106l0,29.001465l-35.727478,-36.321716l-13.131653,-0.224976l0,-41.615967l0.05307,-0.056274c15.008179,-13.805176 29.089508,-30.947021 32.802704,-47.301941l0,-157.789154c4.325439,-1.011841 8.45752,-2.447388 12.227661,-4.50528l0.31842,-1.295013c-14.701233,-25.106537 -19.420837,-68.49353 -29.239349,-103.05249l-1.649048,-0.056244c-10.152039,34.540924 -15.199707,74.368134 -30.302704,103.164978l1.010345,1.688446c4.118805,1.49176 7.904083,2.166351 12.22757,3.154175l0,24.664886l-15.897217,-7.207794l-3.135071,-187.184097c6.567749,-1.441574 13.124146,-3.437225 19.669128,-5.91275l0.532654,-1.23877c-18.05423,-44.82164 -22.610931,-107.857162 -33.97229,-162.012947l-1.700226,0zm0.796082,4.843033c10.61261,52.638725 15.491577,112.994743 32.962006,156.99926c-10.69986,3.989365 -31.70343,7.342255 -32.588593,7.378418c-11.53009,0.415558 -25.118652,-1.389389 -36.631592,-7.322189c16.990845,-37.326828 24.466522,-104.095505 36.258179,-157.055489zm-55.608856,155.987373c9.058319,33.386475 13.959961,74.221558 28.175903,99.279938c-2.911407,3.270569 -15.919983,5.286316 -26.155426,5.461029c-14.341034,-0.214813 -26.343018,-3.88092 -31.155609,-5.57547c14.485107,-28.258728 19.754456,-65.963776 29.135132,-99.165497zm68.581329,8.7276l3.137054,186.565796l-35.725616,0.168549l0.265381,-61.663177l10.739685,-0.957672l0,-9.629089l10.578522,0l0,-11.488159l-21.477478,-1.182617l0,-101.476349c5.652283,1.252792 11.314026,1.678421 16.958679,1.521835c4.85434,-0.12645 15.205383,-1.792862 15.523773,-1.859116l0,0zm-15.470703,39.194733l-0.26535,0.056244c0,0 -2.973999,0.923553 -5.902435,2.702393c-1.463318,0.889404 -5.845612,6.438782 -5.741394,8.334015l-0.21225,19.766113l-2.55127,0l0,9.968323l28.920898,0l0,-9.968323l-2.232849,0l-0.159241,-19.766113l0,-0.056183c-0.151642,-3.890961 -3.235535,-6.57724 -6.061676,-8.334045l-5.794434,-2.702423zm-0.05307,1.913391c0.204742,0.066223 2.490662,0.750854 4.998352,2.308838c2.615723,1.626282 5.096863,4.027527 5.20874,6.926697l0.159149,19.428741l-4.198395,0l-0.691803,-17.23233c0.020782,-1.879211 -4.945282,-5.011261 -4.945282,-5.011261c0,0 -5.591614,4.061646 -5.582123,5.011261l-0.106171,17.23233l-5.20874,0l0.212341,-19.428741l0,-0.056274l0,-0.056183c-0.102386,-1.385345 3.535034,-5.878632 4.89032,-6.701813c2.583466,-1.567993 5.017212,-2.342957 5.263611,-2.421265zm0.265381,8.221619c0.183868,0.06424 3.517944,2.34903 3.508484,3.210327l0.691833,17.513428l-7.761871,0l-0.053101,-17.513428c-0.003754,-0.4216 3.400482,-3.136017 3.614655,-3.210327zm53.855621,15.82489c9.058411,33.386444 13.960114,74.221558 28.177887,99.279968c-4.342468,3.433197 -21.845093,5.344543 -26.263428,5.460968c-14.437775,0.387543 -26.892822,-4.109772 -31.047607,-5.573395c14.485046,-28.260773 19.752563,-65.96582 29.133148,-99.167542zm-66.666992,6.701813l25.145081,0l-0.371521,6.755981l-25.147003,-0.393524l0.373444,-6.362457zm-21.850891,24.156921l0,99.675476l-17.809723,8.952423l0,0.056213l0.37149,1.690491l17.172913,-0.283051l0,51.69693c-0.434082,2.389191 -24.61438,3.403046 -31.580231,-1.40741l-0.106171,-159.929352c0.248322,0.044189 11.113098,1.437561 16.215668,1.40744c3.38147,-0.036133 13.859589,-1.377319 15.736053,-1.859161zm17.491272,8.785797l19.724182,0l0,7.882324l-19.724182,0l0,-7.882324zm9.143738,9.685242l0,7.828156l-9.196808,0l-0.161072,-7.659485l9.35788,-0.168671zm8.400726,13.96579c0,0 -2.97403,0.925568 -5.902466,2.702332c-1.463348,0.889374 -2.93042,1.99173 -4.039246,3.378998c-1.088043,1.361237 -1.808289,3.059845 -1.702148,4.955109l-0.21228,19.766022l-2.924713,-0.955658l0.373444,10.924042l28.920868,0l0,-9.968384l-2.232849,0l-0.159241,-19.822235c-0.151611,-3.890991 -3.235535,-6.577332 -6.061646,-8.334076l-6.059723,-2.646149zm0.212219,1.8591c0.20285,0.064301 2.490662,0.748901 4.996429,2.308899c2.617645,1.626221 5.098785,4.027496 5.210571,6.924622l0.159271,19.428772l-4.94339,0l0.053131,-17.2323c0.020813,-1.879242 -1.357208,-3.116028 -2.553223,-3.884918c-1.194122,-0.766968 -2.392029,-1.126404 -2.392029,-1.126404c0,0 -4.16626,2.013824 -4.678009,2.64624c-0.51178,0.632416 -0.913574,1.417419 -0.904144,2.365082l0.05307,17.2323l-5.369812,0l0.214203,-19.428772l0,-0.056183l0,-0.056213c-0.102356,-1.385376 0.413208,-2.57196 1.328705,-3.716309c0.913574,-1.144379 2.206238,-2.160339 3.561523,-2.983521c2.583557,-1.569977 5.01535,-2.345001 5.263702,-2.421295zm0.26535,8.221649c0.183838,0.06424 0.879547,0.337311 1.755188,0.899475c0.981903,0.632446 1.762787,1.44751 1.753357,2.308868l-0.053101,17.513367l-7.017029,0l-0.05304,-17.513367c-0.005676,-0.4216 0.149719,-0.831268 0.477661,-1.23877c0.329803,-0.40564 2.920929,-1.897308 3.136963,-1.969574zm-51.249359,6.98288c0,0 -3.23938,0.979767 -6.167877,2.758575c-1.463257,0.889435 -2.932251,1.989655 -4.041046,3.379089c-1.086121,1.3591 -1.806366,3.059631 -1.700195,4.954987l-0.21228,19.766022l-2.553223,0l0,9.968414l28.920898,0l0,-9.968414l-2.232849,0l-0.159271,-19.766022c0,0 -3.235504,-6.633514 -6.059692,-8.390289l-5.794464,-2.702362zm-0.054932,1.91333c0.204681,0.066284 2.49057,0.750916 4.99823,2.308899c2.615784,1.62616 5.096954,4.027496 5.210663,6.926636l0.159241,19.428741l-4.945251,0l0.05304,-17.2323c0.020874,-1.879211 -1.357117,-3.117981 -2.55127,-3.884918l-2.86972,-1.126373c0,0 -3.688629,2.013855 -4.200317,2.646149c-0.511841,0.632446 -0.915527,1.415466 -0.904144,2.365143l0.05307,17.2323l-5.369812,0l0.21228,-19.428741l0,-0.056213l0,-0.056213c-0.102417,-1.385284 0.4151,-2.571899 1.328644,-3.716278c0.915558,-1.144379 2.20636,-2.162292 3.563507,-2.985474c2.583527,-1.568085 5.015381,-2.343079 5.261841,-2.421356zm0.267212,8.22168c0.183868,0.06427 0.877594,0.339264 1.753326,0.901428c0.983765,0.632385 1.764648,1.447601 1.755188,2.308868l-0.053131,17.513367l-7.01886,0l-0.052979,-17.513367c-0.003876,-0.4216 0.149658,-0.833191 0.479553,-1.23877c0.327881,-0.405518 2.920868,-1.897308 3.136902,-1.971527zm37.852295,5.406769l25.518555,0l0,7.15152l-25.518555,-0.789032l0,-6.362488zm50.026794,8.783813c5.707214,3.55368 31.493103,0.893463 32.004761,0.789032l0.161194,156.775116c-9.818481,3.142151 -22.074493,5.888733 -31.314819,2.365112l0,-124.902527l16.534027,-0.281036l0.31839,-1.744781l-17.703552,-8.053009l0,-24.947906zm-101.063873,8.33609l25.518555,0l0,6.362427l-25.518555,0l0,-6.362427zm82.617279,10.191193l0.053131,0l0.05307,0l30.569885,14.642334l-98.196014,1.519867l30.569885,-15.429352l36.950043,-0.732849zm17.597412,16.499451l0,102.883728l-10.633514,0l-22.808014,-0.393372l0.373444,11.825317l11.111145,0.789124l-0.373413,8.898254l22.330353,0l0,88.072876l-70.071259,-1.294922l0.532654,-109.304626l-0.532654,-100.406219l70.071259,-1.07016zm17.11795,4.673981c0,0 -2.97403,0.925568 -5.900604,2.704437c-1.465118,0.887451 -2.932251,1.989685 -4.041138,3.378998c-1.086029,1.359253 -1.806396,3.057709 -1.700165,4.955109l-0.214233,19.765991l-2.55127,0l0,9.966339l28.920929,0l0,-9.966339l-2.232849,0l-0.159241,-19.765991c0,0 -3.235626,-6.63562 -6.059814,-8.39032l-6.061615,-2.648224zm0.212219,1.859131c0.204742,0.066284 2.490692,0.751007 4.998322,2.308929c2.615753,1.626221 5.096893,4.027466 5.210663,6.926636l0.15921,19.428741l-4.945221,0l0.05307,-17.2323c0.020782,-1.879181 -1.357147,-3.117981 -2.55127,-3.886963c-1.194183,-0.766907 -2.39212,-1.126282 -2.39212,-1.126282c0,0 -1.690735,0.361328 -2.924652,1.126282c-0.616058,0.383484 -2.668793,2.937347 -2.657471,3.886963l-0.691833,17.40094l-4.624969,-0.16864l0.212311,-19.428741l0,-0.056152l0,-0.056305c-0.102325,-1.385345 0.415131,-2.571899 1.328735,-3.716278c0.915466,-1.146423 2.20636,-2.162262 3.563538,-2.985443c2.581573,-1.568085 5.01532,-2.343048 5.261688,-2.421387zm-162.628387,5.969025c9.077423,43.443115 20.664337,86.695435 38.86264,122.425049c-6.222748,1.949463 -27.745728,6.719849 -37.321564,7.263855c-17.953766,1.021912 -37.602081,-4.710022 -42.797577,-7.095337c17.457184,-31.458984 27.732513,-81.461365 41.2565,-122.593567zm162.895691,2.252686c0.183838,0.064209 0.877533,0.33728 1.753296,0.901398c0.981842,0.630463 1.764679,1.445618 1.755157,2.308899l-0.053009,17.513397l-7.01889,0l-0.05307,-17.513397c-0.003784,-0.421631 0.14975,-0.83316 0.479523,-1.238739c0.327881,-0.407562 2.920868,-1.899261 3.136993,-1.971558zm-13.184723,21.962524l25.359222,1.126282l0.15918,5.800293l-25.518402,0l0,-6.926575zm-39.554474,4.449036c0,0 -3.923645,1.118317 -7.868073,3.491486c-1.973206,1.18454 -3.965271,2.678192 -5.476013,4.561493c-1.512543,1.881226 -2.562653,4.21225 -2.500061,6.868469l0.267273,24.723022l-3.563416,0l-0.371613,10.191223l42.903748,0.168701l0,-10.359924l-4.67804,0l-0.373383,-24.046448l0,-0.056213c-0.267242,-6.127502 -4.920624,-10.002472 -9.302917,-12.333435l-9.037506,-3.208374zm0.26532,1.800903c0.318451,0.068298 4.065796,0.877411 8.027313,2.985535c4.133972,2.198456 8.120148,5.671814 8.347595,10.867798l0.37149,23.819641l-6.698578,-0.112488l0.10614,-22.468384c0.034119,-3.09198 -2.306793,-5.256226 -4.465698,-6.645538c-2.156982,-1.38739 -4.306458,-2.082001 -4.306458,-2.082001c0,0 -2.71051,0.698639 -4.943359,2.082001c-1.116455,0.692596 -2.253693,1.555908 -3.136993,2.648163c-0.88327,1.092163 -1.504974,2.441345 -1.487915,3.997375l0.15921,22.412231l-6.114746,0l-0.26535,-24.440002c-0.051147,-2.142273 0.752472,-3.985321 2.073669,-5.629669c1.321075,-1.646332 3.136932,-3.049683 4.996399,-4.16806c3.644928,-2.190369 7.185638,-3.222443 7.33728,-3.266602zm1.116455,8.22168c0.199036,0.068268 1.882202,0.620392 3.720795,1.802917c1.946655,1.250793 3.639252,2.991516 3.616516,5.067505l-0.10614,22.751465l-14.674652,0l-0.15918,-22.751465c-0.011444,-1.027954 0.415131,-1.949524 1.116394,-2.81488c0.701294,-0.86731 1.647125,-1.62616 2.659332,-2.252625c1.891663,-1.174438 3.590027,-1.724609 3.826935,-1.802917zm-68.740692,2.589966c9.522827,4.583618 19.661591,4.687927 30.355804,1.070068l0.373383,42.461426c-14.458588,-13.090393 -23.206085,-27.576172 -30.729187,-43.531494zm49.920715,28.832886l39.127899,0l0,6.757935l-39.127899,0l0,-6.757935zm129.668304,7.715637c9.081055,43.461182 21.236633,86.910461 39.446289,122.650024c-5.902405,1.846985 -30.795471,6.240051 -36.948181,6.982849c-14.405396,1.734619 -38.379211,-4.595764 -43.70166,-7.039185c17.457153,-31.459045 27.679382,-81.463318 41.203552,-122.593689zm-108.456268,14.359375l19.724152,0l0,7.828064l-19.724152,0l0,-7.828064zm21.58551,0l9.72937,0l0,7.828064l-9.72937,0l0,-7.828064zm-10.100922,9.628845l19.724121,0l0,7.884521l-19.724121,0l0,-7.884521zm52.737244,11.038635c-6.370514,17.671997 -17.485535,29.427185 -30.780243,41.220581l-0.373383,-39.813171c9.598572,3.409058 21.433807,1.642334 31.153625,-1.40741zm-67.995667,15.316956c0,0 -3.923645,2.078003 -7.868073,4.449097c-1.973206,1.184509 -3.965271,2.678345 -5.476013,4.561584c-1.512543,1.881165 -2.562653,4.212158 -2.500061,6.868347l0.267273,24.723145l-3.563416,0l-0.371613,11.148926l43.062897,0l-0.159149,-11.148926l-4.67804,0l-0.373383,-24.046509l0,-0.056213c-0.267242,-6.127502 -4.810699,-10.249451 -9.302917,-12.333435l-9.037506,-4.166016zm-88.679047,0.957642l0,14.359253l-11.588776,-0.957642l0.37146,10.586548l-10.10083,0l-0.371521,12.670898l21.689667,-1.182495l0,71.742004l-18.446533,17.796326l0.583771,1.576111l17.862762,0l-0.530701,34.520874c-22.275421,8.988647 -45.083405,-0.668518 -46.25293,-1.294983l0,-159.254761c15.157959,3.322815 31.060852,2.606079 46.78363,-0.562134zm88.944366,1.800903c0.318451,0.068298 4.065796,0.877441 8.027313,2.985535c4.133972,2.198425 8.120148,5.671875 8.347595,10.867737l0.37149,23.819702l-6.698578,-0.112427l0.10614,-22.468445c0.034119,-3.091858 -2.306793,-5.256226 -4.465698,-6.64563c-2.156982,-1.387268 -4.465668,-3.264526 -4.465668,-3.264526c0,0 -2.5513,1.881287 -4.784149,3.264526c-1.116455,0.692688 -2.253693,1.55603 -3.136993,2.648193c-0.88327,1.092285 -1.504974,2.441406 -1.487915,3.997437l0.15921,22.412231l-6.114746,0l-0.26535,-24.440063c-0.051147,-2.142212 0.752472,-3.985291 2.073669,-5.6297c1.321075,-1.646301 3.136932,-3.049683 4.996399,-4.16803c3.644928,-2.190369 7.185638,-3.222351 7.33728,-3.266541zm1.116455,8.22168c0.199036,0.068176 1.882202,0.620361 3.720795,1.802917c1.946655,1.250793 3.639252,2.991516 3.616516,5.067505l-0.10614,22.751526l-14.674652,0l-0.15918,-22.751526c-0.011444,-1.028015 0.415131,-1.949402 1.116394,-2.814758c0.701294,-0.867371 1.647125,-1.626404 2.659332,-2.252747c1.891663,-1.1745 3.590027,-1.72467 3.826935,-1.802917zm-100.108582,5.181885l9.835541,0.957703l0,7.825989l-9.302979,0l-0.532562,-8.783691zm-9.568298,10.586792l19.616058,0l0,7.884338l-19.989441,1.351257l0.373383,-9.235596zm90.856903,15.654236l39.127899,0l0,6.757996l-39.127899,0l0,-6.757996zm-96.120544,1.351196c0,0 -3.923645,1.120239 -7.868103,3.491394c-1.973145,1.186523 -3.965271,2.680359 -5.475952,4.561584c-1.512573,1.883301 -2.562653,4.214233 -2.500092,6.870422l0.267242,24.721069l-3.563477,0l0,10.361938l42.532166,0l0,-10.361938l-4.677948,0l-0.373383,-24.044434l0,-0.056274c-0.267303,-6.127563 -4.920654,-10.002441 -9.302948,-12.333435l-9.037506,-3.210327zm0.26532,1.802917c0.318451,0.066223 4.065735,0.87738 8.027283,2.983459c4.134003,2.198547 8.120148,5.673828 8.347595,10.869873l0.371552,23.81958l-6.698578,-0.112488l0.106079,-22.468384c0.03418,-3.093933 -2.306763,-5.258301 -4.465668,-6.645569c-2.157013,-1.38739 -4.306458,-2.083984 -4.306458,-2.083984c0,0 -2.710541,0.698669 -4.94339,2.083984c-1.116425,0.692688 -2.253662,1.553955 -3.136932,2.646179c-0.883331,1.092224 -1.505035,2.44342 -1.487946,3.99939l0.15921,22.412231l-6.114746,0l-0.26532,-24.440002c-0.05127,-2.142273 0.752472,-3.985291 2.073578,-5.631714c1.321167,-1.644348 3.136993,-3.047729 4.996429,-4.166016c3.644989,-2.192444 7.18573,-3.222351 7.337311,-3.266541zm1.116455,8.22168c0.199005,0.066223 1.882202,0.618286 3.720825,1.800964c1.946564,1.252686 3.639221,2.993347 3.616455,5.069397l-0.10614,22.749512l-14.674622,0l-0.15921,-22.749512c-0.011383,-1.027954 0.4151,-1.949463 1.116455,-2.816833c0.701294,-0.865295 1.647095,-1.624268 2.659302,-2.252563c1.891663,-1.172607 3.589996,-1.722717 3.826935,-1.800964zm63.797302,17.90686l97.981873,1.802917l49.336823,51.694946l-202.503113,0.562134l22.808105,-21.398376l32.376312,-32.661621zm182.564728,6.982849l0,156.718994l0,2.196411c-5.348999,2.093994 -10.298035,3.23645 -15.15033,3.999451c-10.606995,1.656433 -20.489929,0.46167 -31.421021,-3.718262l0,-110.316589l15.099243,0l0.583801,-1.576111l-15.895386,-16.274536l0,-30.240356c15.173218,3.248474 31.064697,2.431396 46.783691,-0.789001zm-265.182037,6.533142l39.289032,0.957764l-0.161102,5.800293l-39.12793,0l0,-6.758057zm216.910492,42.009583l-0.532654,110.0354l0.532654,108.403076l-175.494751,0l2.71048,-217.255859l172.784271,-1.182617zm23.179504,0.730835c0,0 -4.135864,1.176575 -8.082153,3.547729c-1.971313,1.186462 -3.963501,2.680298 -5.476013,4.561523c-1.510681,1.883179 -2.560791,4.214172 -2.49823,6.870483l0.265381,24.721008l-3.561584,0l0,10.361938l43.436279,0l-0.904114,-10.361938l-4.679871,0l-0.371521,-24.100769c-0.269165,-6.127563 -4.922485,-10.002441 -9.302856,-12.333374l-8.825317,-3.266602zm0.05304,1.859253c0.318481,0.066162 4.065857,0.877258 8.027283,2.985413c4.133911,2.198425 8.118225,5.671875 8.347534,10.867798l0.371643,23.819641l-6.698547,-0.112427l0.10614,-22.468445c0.03418,-3.093811 -2.308655,-5.25824 -4.465698,-6.645508l-4.78418,-2.084106c0,0 -2.232849,0.700684 -4.465759,2.084106c-1.116333,0.692566 -2.253601,1.553894 -3.136902,2.646118c-0.885193,1.094299 -1.506897,2.443359 -1.489868,3.99939l0.159241,22.412231l-6.112854,0l-0.26532,-24.440063c-0.051208,-2.142212 0.752441,-3.985229 2.073547,-5.631653c1.321167,-1.644409 3.135132,-3.047668 4.996399,-4.165955c3.645081,-2.190491 7.185791,-3.222473 7.337341,-3.266541zm1.116455,8.221558c0.199097,0.068237 1.882263,0.620422 3.720764,1.802979c1.946655,1.250793 3.63739,2.991516 3.614685,5.067444l-0.10614,22.749512l-14.672791,0l-0.159119,-22.749512c-0.011475,-1.028015 0.415039,-1.949585 1.116455,-2.816772c0.701233,-0.865356 1.647095,-1.624329 2.657288,-2.250671c1.893616,-1.174561 3.590027,-1.724731 3.828857,-1.802979zm-156.250122,1.294983l0.744965,11.99408l10.472382,0l0,9.687317l23.659088,0.168701l-0.532654,-11.656921l-10.472412,0l0,-9.629028l-23.871368,-0.564148zm1.702148,1.802917l20.467102,0.562195l0,7.828064l-19.724121,0l-0.742981,-8.390259zm11.217316,10.191162l10.100891,0l9.623169,0l0,7.88446l-19.72406,0l0,-7.88446zm78.098511,4.561646c0,0 -5.168884,1.758728 -10.102814,4.730103c-2.465973,1.487793 -4.939545,3.27063 -6.857758,5.40686c-1.918213,2.13623 -3.311371,4.671997 -3.349274,7.488831l-0.26532,26.07428l-5.422913,0l0.904114,11.994202l48.80426,0l0.744873,-11.994202l-4.412659,0l-0.05304,-25.060425l0,-0.056152c-0.115601,-2.824951 -1.506866,-5.374695 -3.402344,-7.601318c-1.897278,-2.228516 -4.340546,-4.196106 -6.751617,-5.800354l-9.83551,-5.181824zm-92.718201,1.351196c0,0 -5.168945,1.758728 -10.102753,4.730225c-2.466034,1.487671 -4.939636,3.27063 -6.857819,5.406738c-1.918152,2.13623 -3.31131,4.671997 -3.349243,7.490723l-0.265411,26.072327l-4.518768,0l-0.373383,12.783264l49.177643,-0.789001l0,-11.994263l-3.667664,0l-0.05307,-25.116516c-0.115662,-2.822815 -1.506927,-5.374695 -3.402344,-7.601257c-1.897339,-2.226624 -4.340637,-4.196228 -6.75354,-5.800354l-9.833649,-5.181885zm92.665131,0.620239c0.263489,0.106567 4.46756,1.782898 8.984467,4.786499c2.325775,1.547974 4.69696,3.366882 6.433228,5.40686c1.734314,2.037842 2.486786,4.22821 2.577789,6.474854l0.398041,25.060425l-6.006683,0l0.212311,-23.709167c0.045441,-4.113892 -3.144592,-7.099304 -6.114777,-9.008728l-6.165985,-2.929138c0,0 -3.305603,1.021912 -6.380096,2.929138c-1.53717,0.95166 -3.055481,2.18042 -4.253387,3.660095c-1.197937,1.479675 -2.043274,3.282654 -2.020538,5.348633l-0.477661,23.709167l-6.006683,0l0.26535,-26.07428c0.028412,-2.21051 1.12973,-4.312622 2.869751,-6.25c1.73996,-1.9375 4.109344,-3.635986 6.486176,-5.067627c4.590851,-2.766602 8.889771,-4.228149 9.1987,-4.336731zm-92.720062,1.351379c0.26532,0.108459 4.469421,1.782776 8.986328,4.786316c2.325714,1.547913 4.69696,3.366882 6.431305,5.406799c1.736267,2.037903 2.83371,4.228271 2.924683,6.474976l0.05304,25.060303l-6.006683,0l0.212311,-23.707153c0.045471,-4.115845 -3.144562,-7.101379 -6.114807,-9.01062c-2.968262,-1.909424 -5.900574,-2.873108 -5.900574,-2.873108c0,0 -3.570984,0.965698 -6.645477,2.873108c-1.537201,0.953552 -3.05545,2.180298 -4.253326,3.660034c-1.197968,1.479736 -2.043365,3.282715 -2.020599,5.350586l-0.477661,23.707153l-6.008545,0l0.267242,-26.072327c0.028473,-2.212402 1.129669,-4.314453 2.86972,-6.251953c1.73999,-1.937439 4.109344,-3.635986 6.486298,-5.067505c4.590759,-2.764587 8.889648,-4.228149 9.196747,-4.336609zm-86.656555,3.999268c8.605377,6.513062 34.730469,3.366943 45.083466,0.787048l-0.691864,48.374084c-19.189636,-10.785339 -35.860168,-27.174438 -44.391602,-49.161133zm179.695007,2.646179c0.204742,0.068298 2.666901,0.885437 5.316864,2.590027c2.75592,1.772888 5.295807,4.280457 5.261749,7.376404l-0.21228,23.765381l-21.79776,0l0.479492,-23.709167l0,-0.056213c-0.017059,-1.537964 0.580078,-2.913208 1.594116,-4.166077c1.015961,-1.254883 2.395813,-2.322876 3.828796,-3.210327c2.733307,-1.696533 5.284515,-2.511719 5.529022,-2.590027zm-92.71814,1.351257c0.204651,0.068237 2.66687,0.887451 5.316742,2.589966c2.755981,1.772705 5.295929,4.280396 5.261749,7.378357l-0.212219,23.763367l-21.797791,0l0.479553,-23.707153l0,-0.056213c-0.017059,-1.539917 0.579987,-2.915222 1.594055,-4.168091c1.015961,-1.252686 2.395874,-2.322876 3.828857,-3.210266c2.733246,-1.694519 5.284546,-2.511658 5.529053,-2.589966zm138.86496,2.252686l39.12793,0l0,6.757996l-39.12793,0l0,-6.757996zm75.918762,30.409058c15.787292,48.098999 24.184143,99.512817 47.049011,144.499939c-7.636658,4.384888 -35.037476,11.3396 -79.851807,3.716248c-5.733643,-0.979797 -11.391724,-2.306824 -17.013672,-3.999329c22.150452,-44.302429 33.44165,-96.123901 49.816467,-144.216858zm-338.976013,0.676514c15.787292,48.097046 24.557556,99.342285 47.422455,144.329224c-15.965454,9.342041 -75.886551,7.768066 -97.981888,-0.112305c22.150314,-44.304504 34.184555,-96.12384 50.559433,-144.216919zm193.251343,0.843262l2.818604,0l42.585205,0l0,8.390259l-45.403809,0l0,-8.390259zm-92.718109,1.351135l2.818451,0l42.583405,0l0,8.392395l-45.401855,0l0,-8.392395zm104.680359,24.552551l0,12.389587l10.474365,0l0,9.685242l23.869415,0.168701l-0.742981,-9.853943l10.525452,0l0.373413,-11.600586l-22.224213,0.16864l-22.275452,-0.957642zm1.702148,1.971558l19.297668,0.789063l0,7.826172l-19.297668,0l0,-8.615234zm21.424347,0.789063l19.2995,0l0,7.826172l-9.676208,0l-9.623291,0l0,-7.826172zm-10.951996,9.628967l10.100952,0l9.623199,0l0.904175,8.277893l-20.628326,-0.393494l0,-7.884399zm41.840363,0.056213c15.336182,5.732178 29.068726,6.033142 45.295776,0.11261c-11.672241,19.781982 -27.184692,35.855835 -45.295776,47.472595l0,-47.585205zm-91.495636,31.029358c0,0 -5.167053,1.756836 -10.100891,4.730408c-2.466034,1.485596 -4.939575,3.268494 -6.857819,5.404663c-1.918121,2.136108 -3.31131,4.671997 -3.349213,7.490845l-0.26535,26.072266l-4.518768,0l0,11.994202l48.80426,0l0,-11.994202l-3.669647,0l0.108032,-25.847412c0,0 -1.666077,-4.643921 -3.563416,-6.870422c-1.895477,-2.226624 -4.338684,-4.196106 -6.751678,-5.800415l-9.83551,-5.179932zm-0.05304,1.969666c0.263489,0.108337 4.469482,1.782837 8.984467,4.786377c2.327606,1.548035 4.698792,3.368958 6.433167,5.40686c1.736237,2.039856 2.83371,4.228271 2.924683,6.476929l0.053101,25.05835l-6.008636,0l0.214203,-23.707092c0.043579,-4.115906 -3.144562,-7.101379 -6.114746,-9.010742l-6.165924,-2.927307c0,0 -3.305725,1.021973 -6.380096,2.927307c-1.537201,0.953674 -3.055481,2.18042 -4.253387,3.660095c-1.197937,1.479614 -2.043365,3.282593 -2.020599,5.350647l-0.851074,23.313599l-5.635193,0.393494l0.265381,-26.072266c0.030334,-2.21051 1.131622,-4.312622 2.871613,-6.252075c1.740021,-1.937439 4.109344,-3.636047 6.486298,-5.067566c4.59079,-2.764526 8.887726,-4.228271 9.196747,-4.336609zm0.320313,7.996887c0.204742,0.068115 2.665009,0.887268 5.31485,2.589844c2.757935,1.772766 5.297791,4.280579 5.263702,7.378418l-0.21228,23.763367l-21.79776,0l0.479492,-23.707092l0,-0.056274c-0.016998,-1.539978 0.580078,-2.915161 1.594116,-4.168091c1.014069,-1.252869 2.395844,-2.320801 3.826996,-3.210327c2.735077,-1.69458 5.286346,-2.509705 5.530884,-2.589844zm-23.659058,35.534546l2.818512,0l42.583344,0l0,8.390259l-45.401855,0l0,-8.390259zm-75.600372,31.196167l201.972412,0l49.016541,34.239685l-299.580902,1.800903l48.591949,-36.040588zm236.899963,2.421204c22.3797,4.730225 45.100464,5.669739 66.668945,0.620239l-0.904114,190.619568c-19.775391,7.936768 -44.567871,10.00647 -65.605652,0.789063l0.320374,-32.155518l1.381775,-126.141541l16.162537,-0.112427l0.477722,-1.688477l-18.554626,-12.670776l0.05304,-19.260132zm-338.549591,0.957703c16.797577,3.437256 59.426422,3.925049 66.668976,0.056152l-0.053101,20.274048l-16.746368,12.443909l0.477631,1.690552l14.088989,-0.056396l0.37149,157.564392c-21.547546,6.211914 -48.057434,8.320068 -64.274979,0.056152l-0.532639,-192.028809zm338.708771,32.774109l-0.902222,84.356628l-0.479492,29.565796l-9.888672,0.789063l-22.27533,-0.957642l0,10.923828l-10.951965,0l-0.371521,12.839478l11.323486,-1.351318l0,9.629272l23.126404,0l0,-9.629272l9.090576,0.393677l-0.37146,21.56897l-56.194641,0.056274l-1.487915,-15.99353l-11.005035,0l0.902191,-15.654175l10.049805,0.224731l-0.744934,-20.61145l-10.580414,-0.168579l0.373352,-16.049683l10.207062,0l0.904175,-19.990845l-12.227631,0.168579l-3.296234,-21.454468l7.441589,-4.111938l-14.67276,-19.990967l-8.080261,8.785767l-17.225952,-11.15094l5.475952,-8.615173l-19.564911,-9.797607l-4.837189,9.685425l-22.381561,0.562134l-4.945282,-11.205261l-20.573334,10.586731l5.155731,8.558899l-14.513611,11.544495l-9.88855,-9.968323l-13.503265,22.301819l7.708893,3.660156l-3.614716,21.848145l-11.325317,0l0,20.780029l10.208954,-0.957886l0,16.21814l-10.208954,0l0,19.82251l10.208954,0l0,16.218506l-11.005035,0l-1.489807,14.979614l-55.768188,0.056152l-0.320313,-129.520386l11.058075,-0.562134l-0.15921,-9.066833l10.527405,0l-0.373444,-10.699341l-21.105927,-0.78894l0,-5.800293l272.572449,-2.027832zm-154.760223,5.800354l9.94162,21.229492c-4.052521,1.690613 -8.863159,4.027527 -14.778839,7.322327l-12.121521,-20.217896l16.95874,-8.333923zm34.078369,0.339294l16.321777,8.163391l-10.951965,19.880432l-14.566589,-8.336121l9.196777,-19.707703zm156.568573,2.646179c0,0 -5.166931,1.758728 -10.100891,4.730103c-2.467896,1.485657 -4.941467,3.268738 -6.857788,5.404907c-1.918213,2.136169 -3.313232,4.671997 -3.349182,7.490845l-0.267273,26.072266l-4.518799,0l-0.904114,11.60083l49.710266,0.393433l0,-11.994263l-3.669678,0l-0.05304,-25.114624c-0.113708,-2.82489 -1.506897,-5.374695 -3.402405,-7.603333c-1.895386,-2.226624 -4.340515,-4.196106 -6.751587,-5.800293l-9.83551,-5.179871zm-308.406067,0.845215l19.724091,0l0,7.882263l-9.67627,0l-10.047821,0l0,-7.882263zm-34.821472,0.056213c0,0 -5.167023,1.756775 -10.100891,4.730286c-2.467896,1.485657 -4.941467,3.268433 -6.85965,5.404724c-1.916321,2.136292 -3.311371,4.672119 -3.349258,7.490784l-0.265396,26.072388l-4.518768,0l0,11.994019l48.80426,0l0,-11.994019l-3.667725,0l-0.05307,-25.116638c-0.115601,-2.822937 -1.506866,-5.374695 -3.402313,-7.601318c-1.895508,-2.226501 -4.340576,-4.196167 -6.751648,-5.800232l-9.835541,-5.179993zm343.1745,1.068115c0.263489,0.108398 4.469482,1.78479 8.984436,4.788452c2.327637,1.547974 4.697021,3.367065 6.433289,5.404724c1.736145,2.039978 2.831726,4.228394 2.924622,6.47699l0.05304,25.058411l-5.263672,0l-0.532593,-23.707214c0.045471,-4.115784 -3.144592,-7.101318 -6.112854,-9.010742c-2.970215,-1.90918 -5.900635,-2.871033 -5.900635,-2.871033c0,0 -3.572815,0.965881 -6.647278,2.871033c-1.535339,0.953674 -3.055542,2.180481 -4.251526,3.660034c-1.197937,1.479797 -2.043396,3.284607 -2.02063,5.350708l-0.479492,23.707214l-6.006653,0l0.26532,-26.072266c0.030334,-2.21051 1.131592,-4.312561 2.871582,-6.250244c1.740051,-1.939392 4.109375,-3.637756 6.486267,-5.069458c4.588928,-2.764587 8.887817,-4.22821 9.196777,-4.336609zm-343.227509,0.901367c0.263367,0.108704 4.469452,1.782959 8.984436,4.786438c2.327606,1.547913 4.69693,3.367004 6.433167,5.406921c1.734344,2.039795 2.831848,4.22821 2.922821,6.476868l0.05304,25.058472l-6.006714,0l0.212311,-23.707336c0.045471,-4.115784 -3.144592,-7.101196 -6.112885,-9.01062c-2.970154,-1.909302 -5.902405,-2.871033 -5.902405,-2.871033c0,0 -3.571045,0.963684 -6.645477,2.871033c-1.537231,0.953735 -3.05545,2.180481 -4.253448,3.660095c-1.196014,1.479736 -2.041382,3.282593 -2.018677,5.350525l-0.479523,23.707336l-6.006714,0l0.265381,-26.072388c0.028442,-2.212524 1.131592,-4.312561 2.86972,-6.252014c1.740021,-1.9375 4.111237,-3.636047 6.486237,-5.067444c4.59082,-2.764709 8.889709,-4.228149 9.19873,-4.336853zm159.279022,3.604065l20.946716,0l-5.316772,10.642822l-4.784149,-1.800903c0,0 -3.402313,1.296997 -5.953583,2.30896l-4.892212,-11.150879zm184.266968,3.491272c0.204651,0.070374 2.666931,0.887634 5.316772,2.592041c2.757813,1.772888 5.297729,4.278381 5.26355,7.376343l-0.212158,23.763489l-21.797852,0l0.477722,-23.707214c0,0 0.581848,-2.969421 1.595947,-4.224304c1.014038,-1.252808 2.395874,-2.320801 3.826904,-3.208313c2.735168,-1.696533 5.284607,-2.51178 5.529114,-2.592041zm-308.671509,0.564331l9.198639,0l0,7.82605l-9.198639,0l0,-7.82605zm-34.556061,0.337097c0.20462,0.068359 2.66684,0.887451 5.316711,2.590088c2.757904,1.772766 5.297821,4.280273 5.263702,7.378418l-0.214203,23.763428l-21.795807,0l0.4776,-23.707336l0,-0.056091c-0.017029,-1.540039 0.580048,-2.915222 1.595978,-4.16803c1.014069,-1.252808 2.395874,-2.320984 3.826904,-3.210388c2.735168,-1.69458 5.284576,-2.509644 5.529114,-2.590088zm138.971161,3.828857l6.963867,11.713013c-1.184662,0.680725 -2.312469,1.232727 -3.508484,1.971619c-2.801514,1.734802 -5.546082,3.738464 -8.239563,5.800354l0,-0.056274l-9.25177,-8.165466l14.03595,-11.263245zm60.021515,0.339355l15.684875,11.769287l-7.33728,8.221558c-3.1427,-2.425232 -6.459717,-4.700073 -9.782471,-6.701721c-2.045197,-1.232788 -2.892456,-1.353333 -4.890289,-2.421326l6.325165,-10.867798zm-29.186279,2.196472c0.418915,0.142456 13.579071,4.609802 26.9534,12.668701c6.795227,4.095764 13.562042,9.105164 18.607697,14.811096c5.047638,5.707886 8.332489,12.088379 8.347656,19.033203l0.212311,85.653564l-6.963898,-0.224854l0.850952,-76.642944c0.164978,-15.021729 -11.603943,-26.255005 -23.234467,-33.731934c-7.437714,-4.782227 -15.878265,-7.544861 -23.816406,-11.319458c-1.851868,0.981689 -12.030518,3.844788 -24.083679,11.319458c-6.027588,3.736572 -12.098724,8.352173 -16.640228,13.96582c-4.543396,5.611572 -7.578033,12.247192 -7.496552,19.766113l0.851074,77.036377l-8.559875,-0.056274l1.542877,-84.639404c0.128906,-7.302246 3.480042,-13.947876 8.504883,-19.82251c5.026825,-5.874634 11.691223,-10.942017 18.395447,-15.092102c13.192383,-8.165405 26.109924,-12.582397 26.528809,-12.724854zm55.078278,1.23877l12.2276,16.555603l-19.830322,9.348022c-0.246368,-0.293091 -5.733795,-5.88269 -8.559906,-8.165283l16.162628,-17.738342zm-110.901367,0.112366l18.766937,16.611938c-3.319,2.652344 -9.973938,9.8479 -10.419281,10.418091l-19.618073,-9.348145l11.270416,-17.681885zm57.684479,11.769226c0.581879,0.166687 2.788208,0.714905 6.378204,2.083984l-6.378204,3.208313l0,-5.292297zm-1.702148,0.112488l0,6.137573l-7.176239,-3.772339c4.06958,-1.55011 6.308105,-2.128357 7.176239,-2.365234zm9.304779,2.533691c4.088531,1.632324 9.18161,3.961426 14.40741,7.320313c1.984528,1.276733 3.881897,2.796753 5.794373,4.280396l-27.804413,21.454468l0,-27.817017l7.602631,-5.238159zm-17.332031,0.224976l8.027252,5.519287l0,29.563599l-0.318451,-1.070068l-28.496277,-22.356079c2.094452,-1.589966 4.200287,-3.208252 6.380127,-4.561401c5.208649,-3.230469 10.244965,-5.467041 14.407349,-7.095337zm67.889557,7.263916l3.988068,20.723633l-8.665985,0.112549c-0.587646,-5.607544 -3.080139,-10.761475 -6.698608,-15.429321l11.376526,-5.40686zm-120.416473,1.465698l11.802979,5.123657c-3.375763,4.685913 -5.688232,9.846069 -6.273956,15.485718l-8.984436,-0.056396l3.455414,-20.552979zm90.858765,3.208252c5.542297,4.430908 10.31131,9.717407 13.131653,15.881226l-41.7341,31.928589l0,-24.325317l28.602448,-23.484497zm-59.650085,0.056274l29.34549,24.159058l0,24.214966l-42.638336,-32.605347c0.998932,-2.477539 2.270844,-4.852783 4.041168,-7.039185c2.625153,-3.244507 5.845581,-6.095459 9.251678,-8.729492zm178.950134,0.282959l2.816711,0l42.585205,0l0,8.390381l-46.146729,0l0.744812,-8.390381zm-343.227539,0.901489l2.81665,0l42.585266,0l-0.373413,9.177368l-45.932617,-0.618286l0.904114,-8.559082zm150.613068,15.429688l42.956757,33.956421l0.05307,-0.056274l0,26.409668l-44.818054,-35.420288l0,-14.078125c-0.041748,-3.824707 0.578094,-7.432617 1.808228,-10.811401zm86.870758,0c1.402618,3.320557 2.327606,6.846191 2.285858,10.642822l-0.15921,14.302856l-44.285431,34.858154l0,-26.467773l42.158783,-33.33606zm31.365967,1.2948l0,16.218384l-19.562988,0l0,1.800903l9.355957,0l0,16.218262l-9.355957,0l0,1.802979l19.562988,-0.564331l0,16.782837l-19.669159,0c0,0 -0.155426,-51.974121 -0.161133,-52.146606l19.830292,-0.112427zm-150.559937,1.23877l20.095612,0.224731l-0.31842,14.923462l-19.777191,1.069946l0,-16.21814zm19.777191,17.738159l-0.320374,16.499268l-8.717163,-0.168457l-0.532623,-16.049683l9.57016,-0.281128zm101.543427,6.64563l-0.31842,25.002075l-43.96701,31.591675l0,-21.90625l44.285431,-34.6875zm-90.805634,0.224976l44.818054,35.13916l0,21.793701l-44.871124,-32.380493l0.05307,-24.552368zm-30.514984,11.431885l19.403778,0l-0.318451,16.218384l-19.085327,0l0,-16.218384zm180.066467,6.531006l20.255005,0.789063l0,7.828369l-19.72229,0l-0.532715,-8.617432zm21.957031,0.789063l9.143738,0l-0.053162,7.828369l-9.090576,0l0,-7.828369zm-171.561584,7.376465l44.871124,32.944702l0,1.463623l-28.175934,0.056274l-16.69519,-10.024414l0,-24.440186zm90.540283,0.056274l-0.267303,24.835449l-16.107574,9.460327l-27.592133,0.056274l0,-2.02771l43.96701,-32.324341zm9.88858,2.02771l9.462128,0l0,16.218506l-9.355957,0l0,1.802856l20.360962,0l1.116516,14.359253l-21.477478,-0.112549l-0.106171,-32.268066zm38.7565,0.507935l19.72406,0l0,7.882446l-20.256714,1.351074l0.532654,-9.233521zm21.477417,0l19.724121,0l0,7.882446l-9.676392,0l-10.047729,0l0,-7.882446zm-180.38504,0.337402l8.345673,0.393433l-0.318451,16.218506l-8.559845,0l0.532623,-16.611938zm169.859528,9.347778l9.621399,0l0.052979,0l0.797974,0l9.249939,0l0,7.828247l-20.467285,0.786987l0.744995,-8.615234zm-181.397217,9.066895l19.564911,0l-0.26535,13.120605l-20.787415,0.056274l1.487854,-13.17688zm31.259949,4.61792l13.505127,8.502686l-13.505127,0l0,-8.502686zm90.27298,0.281128l-0.10611,8.109009l-12.811401,0l12.917511,-8.109009zm44.393585,10.755371l-0.267273,13.740967l-174.059906,0l-1.008362,-13.62854l113.344604,-0.056396l0.106079,0.168945l0.320374,-0.168945l61.564484,-0.05603zm-207.660645,15.541626l238.334717,0l0,18.302734l-238.334717,0l0,-18.302734z" stroke-linejoin="bevel" stroke="#ff007f" fill="#ffaad4" id="path2439"/>
   <path d="m517.465881,581.484619c-6.372498,17.671936 -19.074005,32.7901 -32.370636,44.583435l-0.37149,-41.493591c9.59671,3.407104 23.020416,-0.038208 32.742126,-3.089844z" stroke-linejoin="bevel" stroke="#ff007f" fill="#ffaad4" id="path6902"/>
   <path d="m534.816895,837.549805c15.33429,5.731934 31.051392,6.87439 47.278381,0.953552c-11.67218,19.782104 -29.565369,36.695313 -47.676392,48.312012l0.39801,-49.265564z" stroke-linejoin="bevel" stroke="#ff007f" fill="#ffaad4" id="path6828"/>
   <path d="m357.720551,950.578674c-3.163544,4.473206 -8.444244,3.11792 -12.972504,3.210327c-0.962952,4.33667 10.906464,-0.532043 4.543427,3.985352c-4.952881,3.284607 -8.700134,10.486328 -15.252777,9.098938c-2.985352,0.750854 -8.944672,-1.672485 -9.968201,1.214661c3.282898,1.240784 7.31839,0.180847 10.887451,0.558228c4.069641,-0.381409 -2.767334,3.32666 -3.701752,4.878784c-1.757141,1.220764 -7.80365,7.249817 -2.613831,5.264221c2.42804,-3.427185 6.006622,-5.360596 8.730408,-8.482605c3.097168,-2.863037 7.500336,-1.082153 11.211639,-1.544006c10.436432,0.058228 20.870911,0.116516 31.305389,0.174683c-0.350677,1.985657 -4.94339,8.536865 -1.233948,7.358276c1.732483,-3.607788 2.266998,-9.084839 7.257721,-7.33429c11.30072,0.066406 22.60144,0.134705 33.902161,0.200928c-0.545898,1.772888 -0.648224,7.922485 1.334412,4.21228c-1.330627,-5.854614 4.623016,-4.007507 7.964722,-4.174194c11.94516,0.062256 23.892242,0.124451 35.837341,0.186707c-0.094727,1.887207 1.256744,7.958679 2.30304,3.760437c-2.712372,-6.221741 5.557495,-2.983276 8.667938,-3.712036c15.269806,0.078247 30.539581,0.15448 45.809357,0.232727c0.83783,1.67041 4.776611,7.916382 4.202332,3.274658c-1.580872,-1.578125 -2.833801,-4.105835 0.596985,-3.204224c10.413635,0.052063 20.829224,0.104187 31.24469,0.154358c2.941772,1.469727 6.346069,7.167725 8.990173,5.726074c-0.6521,-2.411194 -6.008545,-4.479126 -5.561218,-5.722046c2.797729,-0.696655 8.362732,1.568115 9.221375,-1.238708c-3.178589,-1.289001 -7.102356,-0.124451 -10.565308,-0.574097c-3.523621,-0.319275 -5.781067,-4.0979 -8.747498,-5.928955c-1.652832,-1.780823 -7.088989,-4.914856 -6.182983,-5.784119c1.755188,0.22876 8.865112,0.188721 4.914856,-1.881348c-4.001282,0.20874 -8.296387,0.791077 -11.28363,-2.248535c-1.561829,1.363159 1.776062,3.33075 -1.904968,2.413147c-7.492676,0.068359 -14.983521,0.136536 -22.474365,0.204895c-1.131592,-3.011719 -3.186249,-2.804871 -2.792023,0.012085c-11.042999,0.104309 -22.137054,0.212769 -33.200806,0.325073c0.161133,3.684326 5.95932,0.927612 8.49353,1.720642c8.865021,-0.086304 17.730133,-0.170532 26.595123,-0.256897c1.732483,3.51947 6.90332,8.974487 6.437012,11.257263c-17.775574,-0.110413 -35.551208,-0.220825 -53.328705,-0.333313c-1.180847,-4.78833 -0.691895,-11.508301 -2.920898,-15.085999c-1.921997,3.069641 0.911743,8.293884 0.790344,12.16272c1.876617,5.39679 -5.968719,1.931458 -8.978699,2.875061c-11.200287,-0.058228 -22.400574,-0.116394 -33.600769,-0.176575c0.978058,-3.387024 -0.502319,-9.659119 2.100159,-11.142944c5.449432,0.036194 10.898895,0.07019 16.348297,0.106445c-0.140198,-3.889038 -6.598053,-0.863281 -9.202423,-1.86322c-3.104797,-0.206787 -7.092804,0.610413 -9.028076,-1.047913c-2.962585,1.887207 -6.764893,0.479797 -10.108459,0.877319c-7.938171,-0.05426 -15.876404,-0.108459 -23.816467,-0.162537c1.749512,-2.764771 -1.675598,-2.68042 -2.060303,-0.174805c-9.735107,0.212769 -19.544128,-0.120422 -29.305695,-0.106384c1.055725,-0.8573 3.110413,-1.955566 1.116425,-3.266541zm-3.243134,5.067505c10.296082,0.076111 20.592285,0.150513 30.888367,0.224792c-2.399658,3.381104 -2.340912,10.775574 -6.518494,11.253357c-12.464508,-0.072266 -24.929047,-0.142639 -37.395416,-0.214783c4.262878,-3.856873 8.656494,-7.545166 13.025543,-11.263367zm32.749695,0.28302c11.251434,0.07428 22.504791,0.14856 33.758087,0.224792c-1.012115,3.399231 0.572479,9.839966 -2.181671,11.199097c-12.102448,-0.072205 -24.204956,-0.146484 -36.309357,-0.218811c1.577026,-3.734375 3.155975,-7.470581 4.732941,-11.205078zm154.068481,0.506042c4.750061,3.884949 9.500061,7.771851 14.248169,11.656738c-10.968994,-0.056152 -21.937988,-0.112427 -32.908875,-0.168518c-1.755249,-3.535583 -6.821777,-8.900391 -6.47113,-11.26947c8.376038,-0.07428 16.753845,-0.146423 25.131836,-0.21875z" stroke-linejoin="bevel" stroke="#ff007f" fill="#ffaad4" id="path19192"/>
   <path d="m424.069122,676.670776c-2.375,4.589661 -7.919281,2.373108 -11.838989,2.65625c-3.313324,0.285034 -8.089844,-0.989868 -10.491364,0.34729c2.369354,2.91925 7.445343,0.439758 10.878021,1.465698c2.175934,0.558167 9.617554,-1.172546 5.352783,2.19043c-1.067139,2.202515 -6.740265,5.125732 -4.147308,6.844238c4.348206,-2.682312 6.556427,-10.427979 12.585846,-8.59906c2.922791,-0.325195 7.379059,0.977905 9.350342,-0.375366c-2.431915,-2.927307 -7.519318,-0.511963 -10.997437,-1.497742c-2.066101,-0.09845 2.191071,-2.188477 -0.691895,-3.031738zm29.984222,0.56427c0.659607,2.609924 -3.59375,3.581787 -0.316528,5.290222c0.163025,2.865051 -2.153259,8.239624 0.265381,9.524719c2.291534,-2.632141 -1.114471,-9.805664 3.29245,-10.393982c9.678162,0.327271 19.430298,0.046082 29.136963,0.140564c2.373077,2.94928 4.325409,8.042969 6.961945,9.651184c1.215027,-3.489563 -4.124481,-6.095581 -4.607849,-9.58905c1.306,0.415649 5.906219,-0.220825 3.152191,-1.905273c-2.642242,0.889404 -5.316772,-0.911499 -6.884308,-1.933533c0.079559,4.284546 -6.313782,0.923645 -9.100098,1.973633c-6.804688,-0.004028 -13.607513,0.006042 -20.410309,0c0.193298,-1.337097 0.562958,-3.403137 -1.489838,-2.758484zm-27.963654,12.218933c-2.066071,2.812927 -2.99295,8.350159 -7.560974,6.890442c-7.439667,-0.192627 -14.877472,-0.38739 -22.317108,-0.582092c0.676666,3.778442 6.565826,1.07605 9.46402,2.037659c5.121552,0.128662 10.243042,0.255127 15.362701,0.383606c-0.773407,1.391357 -4.624939,6.778076 -0.930695,5.153748c1.163788,-5.248108 5.788727,-5.802307 10.040192,-4.81842c2.928497,0.532043 7.890808,-1.112366 9.361694,1.246704c-1.279419,3.278625 -0.911713,8.817932 -3.264008,10.618835c-17.845703,-0.407532 -35.691437,-0.813171 -53.537109,-1.220581c5.42099,-6.063354 10.843872,-12.124695 16.266754,-18.188049c-3.093384,-2.234558 -5.246643,4.597717 -7.87558,6.137573c-3.576752,3.997437 -7.153503,7.996826 -10.732147,11.994202c-3.624023,0.315186 -8.686829,-1.023926 -11.410675,0.327332c1.795074,3.158142 6.835083,-0.04834 9.553162,1.724548c-1.622528,0.875366 -5.970673,7.15155 -1.726715,4.766357c2.105835,-3.493469 5.322388,-6.179749 9.469635,-4.89679c16.805145,0.393433 33.61026,0.784912 50.415405,1.176453c-0.259674,1.572083 -2.47168,7.615356 0.625488,5.316406c-0.407501,-5.22406 3.682892,-6.067261 7.627319,-5.04126c4.365234,-0.431702 -0.523193,-3.144165 -2.541809,-1.847168c-5.364136,1.363281 -2.166534,-4.611755 -1.751373,-7.460754c-0.602783,-5.788269 5.185913,-4.260376 8.711487,-4.236328c10.521729,0.255005 21.041473,0.512024 31.563202,0.766968c1.196075,3.073853 4.90921,8.121277 4.509277,9.940369c-3.718903,-0.383545 -2.261292,2.774597 0.574341,1.877075c3.57486,1.236816 3.0896,8.607117 6.645386,8.332214c0.597137,-2.847046 -6.637878,-9.026733 -0.581848,-8.225769c8.601563,0.11853 17.201324,0.234863 25.801056,0.353394c-0.760193,-4.005371 -6.865417,-0.732849 -9.740875,-1.931396c-6.694733,-0.088318 -13.389496,-0.176758 -20.08429,-0.265137c-1.230072,-3.150146 -4.804871,-7.815979 -4.554657,-10.008423c6.213257,0.164612 12.428406,0.327271 18.643677,0.491821c-0.775238,-4.119812 -6.98288,-0.704712 -9.871582,-2.051819c-4.530151,-0.734863 -10.561493,1.871216 -12.437988,-3.838806c-2.848816,-0.19873 2.105896,5.167908 -2.211945,3.465332c-11.888336,-0.299133 -23.774719,-0.598267 -35.661194,-0.8974c1.802612,-2.672302 -1.764679,-4.368835 -1.573212,-0.781006c-3.288635,1.682434 -7.492737,0.002014 -11.158539,0.455688c-2.828033,0.024109 -6.941193,0.512024 -3.485748,-2.991516c0.634949,-1.212646 2.742706,-3.589783 0.375275,-4.174011z" stroke-linejoin="bevel" stroke="#ff007f" fill="#ffaad4" id="path19231"/>
   <path d="m452.72464,444.097992c-2.340881,0.594269 -0.2388,6.219879 -4.037323,3.897034c-5.085541,-0.054199 -10.174805,0.022064 -15.260284,-0.01001c2.790039,-0.246979 2.26123,-5.627777 -0.11377,-1.963593c-2.511444,3.529663 -7.31073,0.684601 -9.941681,2.730408c0.549713,2.278839 6.916565,-0.066132 3.123718,3.045807c-1.950378,0.614349 -3.845856,4.392883 -0.598938,2.92923c2.547485,-2.182312 4.835297,-5.75412 8.61673,-4.989136c6.008606,0.154602 12.034241,-0.012085 18.052338,0.048157c-0.104218,3.264557 2.617645,1.003815 3.387207,0.038116c3.970947,0.030151 7.996918,-0.112427 11.920532,-0.090393c1.944702,0.050293 5.309174,5.587524 5.872131,2.389282c-2.194946,-2.499634 -3.78714,-5.224121 -7.242554,-5.782257c-1.55426,0.156647 -0.089081,2.718445 -2.265106,1.67038c-3.354889,-0.7388 -8.504883,1.30304 -10.714996,-0.997742c-0.265381,-0.971771 -0.532623,-1.943573 -0.798004,-2.915283z" stroke-linejoin="bevel" stroke="#ff007f" fill="#ffaad4" id="path19287"/>
   <path d="m445.121979,119.623398c-4.365173,33.784195 -8.721039,67.606339 -15.084045,101.045776c-0.919312,2.573929 -0.686188,7.177643 -2.501984,8.40036c-1.144867,-0.706772 -5.629517,-2.810837 -4.259125,0.118439c2.325745,0.740829 5.635193,1.825012 3.550201,4.9422c-0.424591,3.182236 -3.235535,5.364639 -3.427002,8.458542c0.572449,0.429657 1.110748,-1.286957 1.855652,-0.636459c1.324982,-2.901123 3.173004,-5.673798 3.644958,-8.97052c1.03302,-3.378174 5.199249,0.14859 7.75058,-0.7621c3.04599,0.022079 6.088135,-0.381485 9.056458,-1.096237c-0.460571,-3.545609 -4.763245,0.028091 -7.049225,-0.742859c-2.947418,0.156601 -5.923309,-0.090347 -8.794952,-0.833176c4.928253,-21.757736 7.841553,-43.945694 11.101776,-66.031281c2.062256,-14.539124 4.005096,-29.096954 5.858856,-43.667412c-0.568665,-0.075096 -1.135376,-0.150169 -1.702148,-0.225273zm16.480957,74.671082c-3.555817,0.198776 -0.360077,5.497787 -0.913574,7.897614c0.447357,4.298523 0.906006,8.595062 1.446228,12.881577c-7.121246,0.827164 -14.318237,-0.112427 -21.266998,-1.800934c-1.008392,3.666122 4.954742,2.084 6.960144,3.208328c4.818237,0.730804 9.725555,0.967743 14.572205,0.395538c0.97995,8.269791 1.798828,16.583008 3.561584,24.720322c0.214172,2.112091 2.905731,-0.070282 1.377991,-1.586121c-1.487915,-7.322159 -2.259338,-14.778076 -3.157837,-22.190582c-0.566742,-2.959351 7.206512,-0.706711 4.575653,-4.033524c-2.303009,0.789063 -6.160217,1.853134 -5.33194,-2.296814c-0.651978,-5.726028 -1.24527,-11.4599 -1.823456,-17.195404l0,0z" stroke-linejoin="bevel" stroke="#ff007f" fill="#ffaad4" id="path19311"/>
   <path d="m396.90155,273.921234c-1.787384,-0.080292 -1.749481,2.152313 -1.260498,3.405121c0.51178,1.409393 0.523132,2.893127 0.729736,4.354767c2.48877,15.848938 5.697815,31.559418 8.666046,47.314026c-4.215515,0.329285 -8.512482,-0.399567 -12.38678,-2.196442c-1.139191,1.473663 0.657715,2.66626 1.920044,2.754578c1.901184,0.341309 3.718933,1.054047 5.656097,1.186554c1.721039,0.188721 3.457306,0.210846 5.182129,0.056244c-0.242645,1.252777 0.396179,2.606018 1.294647,3.401093c1.978851,0.118408 -0.64447,-3.128021 1.362793,-3.619965c0.966705,-0.684662 2.634674,-0.126465 3.095337,-1.449524c0.255859,-1.746765 -2.202576,-0.513977 -3.136993,-0.479919c-1.569427,0.397552 -1.728668,-2.043793 -1.98645,-3.206299c-0.157318,-1.678467 -0.436005,-3.332825 -0.862488,-4.953094c-2.987213,-15.475525 -6.071075,-30.939056 -8.273621,-46.567139l0,0zm-18.605804,54.003754c-0.959076,2.905243 -0.786621,6.155731 -2.147583,8.918365c-0.403748,1.023895 -1.939056,-0.385498 -2.373138,1.052032c-0.61026,1.74469 2.511505,0.662537 1.876526,2.646149c-0.017059,1.190582 -1.387512,3.043732 0.043579,3.764496c1.584625,0.325226 0.777191,-2.4534 1.622559,-3.445251c0.608429,-1.618195 2.274536,-0.791046 3.358734,-0.39151c11.63623,2.419342 23.89032,2.543793 35.312408,-1.112244c-0.073914,-1.935455 -2.212036,-1.604218 -3.341736,-0.979767c-1.41394,0.762909 -2.972076,0.74884 -4.486511,1.046021c-10.051636,1.786835 -20.393219,0.983795 -30.291351,-1.419495c0.373474,-3.214355 1.904938,-6.250031 1.698334,-9.536652c-0.047394,-0.513977 -0.904053,-0.333344 -1.27182,-0.542145z" stroke-linejoin="bevel" stroke="#ff007f" fill="#ffaad4" id="path19319"/>
   <path d="m497.010132,386.940063c-0.843414,2.092072 -0.22937,7.751831 -3.821198,5.726013c-1.205566,-1.284882 -5.240997,-1.082123 -2.756012,1.058105c2.4375,0.369446 6.09198,1.469635 4.024017,4.884796c-1.205505,3.123993 -0.686157,7.525024 -2.591064,9.970367c-2.337097,-0.379517 -4.670349,-1.112274 -6.850159,-2.130188c-3.953949,-0.672607 -0.03421,3.198303 1.954193,2.597961c1.641449,0.855255 6.490021,0.827179 4.315948,3.82074c-1.2453,1.335144 0.305145,5.553345 1.39505,2.40921c-0.100464,-2.481476 1.12973,-5.619568 3.906555,-3.810638c4.469452,0.825165 9.081116,0.827209 13.539215,-0.076233c1.893585,0.588257 0.390442,6.561188 3.034637,4.001373c-0.371521,-2.188446 -1.067139,-5.509216 2.357971,-4.67804c1.711609,0.654572 4.279907,-1.606171 1.489807,-2.222565c-2.490601,1.03006 -5.868347,1.120331 -5.422974,-2.758575c0.18396,-1.555969 -1.044342,-6.167755 -2.194855,-2.77066c0.367706,2.951355 2.574036,7.68158 -2.282166,7.173584c-4.107422,0.008087 -8.37793,0.399597 -12.341309,-0.953613c-1.504944,-1.666473 0.722168,-5.03537 0.756287,-7.400513c0.998962,-1.845123 0.047394,-7.05719 2.900085,-5.687866c3.684753,0.911469 7.608368,1.250793 11.285553,0.120483c2.170227,1.292938 4.048706,-3.124054 0.722137,-1.875244c-3.984222,1.031921 -8.235779,1.118286 -12.163116,-0.182709c-2.509644,-1.738678 1.355255,-4.84259 -0.032288,-6.968872c-0.352539,-0.266998 -0.815002,-0.266998 -1.226318,-0.246918z" stroke-linejoin="bevel" stroke="#ff007f" fill="#ffaad4" id="path19327"/>
   <path d="m565.538513,586.064148c-3.247009,2.654236 1.709778,7.183655 1.51825,10.683044c5.500671,17.862793 11.039185,35.71344 16.717957,53.514038c-5.966858,3.549561 -12.845581,5.71991 -19.733643,5.141724c-2.029968,3.368896 4.990784,1.527954 6.802795,1.552002c4.742432,-0.702759 9.325623,-2.46344 13.461548,-5.00531c0.092896,3.792603 5.90625,10.305664 1.302185,12.229065c-12.6427,4.730164 -26.380981,6.480896 -39.651062,4.11792c-4.310303,1.7547 3.390991,2.322876 5.091187,2.475464c12.75647,1.369263 25.685303,-0.997864 37.617249,-5.814392c1.292664,3.937134 2.382568,0.959717 2.526733,-1.184509c3.912109,-0.301208 0.373291,-2.780762 -1.406494,-1.790894c-2.208252,-2.909302 -2.147583,-6.988831 -3.766357,-10.25946c-6.965759,-21.838074 -13.656738,-43.772461 -20.480347,-65.658691z" stroke-linejoin="bevel" stroke="#ff007f" fill="#ffaad4" id="path19343"/>
   <path d="m276.113495,808.275146c-4.986938,15.985535 -10.034546,31.94696 -15.046143,47.922424c5.991547,-5.276428 4.799286,-14.881348 8.588348,-21.685547c2.081207,-6.625488 4.162384,-13.24884 6.245514,-19.872437c4.641968,19.370605 9.285828,38.743042 13.927795,58.113647c2.407288,-8.127319 -3.658173,-15.722595 -3.957672,-23.855896c-3.237488,-13.544006 -6.472992,-27.09021 -9.757843,-40.622192zm30.461945,113.077148c-10.157776,2.328735 -21.088898,5.093506 -31.206818,1.070007c4.924408,6.8302 14.483215,2.869019 21.301147,2.686401c3.049805,-0.736816 9.022339,0.46167 9.90567,-3.756409zm-67.465057,0.393555c2.871643,7.65332 14.132538,6.695618 19.860626,4.880493c-6.47113,-1.648193 -14.325897,0.684814 -19.860626,-4.880493zm78.684296,17.681885c-17.102753,4.860779 -35.384491,9.034729 -52.90799,4.047607c-3.392853,-3.158264 -11.342407,-1.371277 -3.510345,0.843201c18.476929,6.11554 38.339417,2.489624 56.403076,-3.053589l0.341217,-0.748962l-0.325958,-1.088257z" stroke-linejoin="bevel" stroke="#ff007f" fill="#ffaad4" id="path19349"/>
   <path d="m615.407959,885.255371c-3.407959,2.322876 0.638794,7.089233 -0.246338,10.53241c0.498474,5.151917 0.816956,10.319763 1.14856,15.483643c-7.799744,1.07019 -15.936951,-0.012024 -23.065796,-3.612c-3.606995,1.642273 4.079041,3.571838 5.690186,4.128052c5.485413,1.732727 11.313904,2.029663 16.979492,1.313049c1.620728,3.248474 0.32605,7.071106 1.328735,10.496399c0.623596,4.029358 -3.210876,2.856873 -5.297791,2.788757c-0.403687,3.521362 6.855896,0.224792 5.64093,5.535156c-0.362061,3.405151 2.083069,10.418091 -3.709473,8.34613c-13.10907,-0.489807 -25.948792,-3.629944 -38.652161,-6.866333c-1.723022,3.296509 5.223877,2.373108 7.079529,3.627808c11.693054,2.869141 23.611633,5.17395 35.655457,5.103821c-1.163757,2.770508 2.380798,4.689941 1.984558,0.784912c2.452637,-2.905151 8.277466,0.622375 9.824158,-3.128052c-2.85083,-1.943481 -8.408264,2.907227 -10.246887,-1.196655c0.314636,-3.571777 -2.708557,-11.614563 3.37207,-9.490479c8.504944,0.305054 17.354797,-0.074219 25.363098,-3.268555c2.752197,-4.300537 -4.677979,0.465698 -6.723206,0.226929c-6.895691,1.23877 -13.979065,1.682312 -20.944763,1.084106c-3.656372,-1.411377 -1.097534,-8.022949 -2.27832,-11.582581c-2.141968,-5.597473 7.922913,-0.538147 7.05481,-4.961121c-3.35498,0.052185 -9.037476,2.252686 -7.697449,-4.033508c-0.327881,-7.143311 -0.930725,-14.292786 -2.259399,-21.31189z" stroke-linejoin="bevel" stroke="#ff007f" fill="#ffaad4" id="path19357"/>
   <g transform="matrix(1.70125 0 0 1.80202 -36.4195 0.875364)" id="g2306">
    <path d="m283.323792,22.035671c0,0 18.163788,-4.03278 20.095795,-1.3276c1.932007,2.7052 -3.477997,4.637499 -3.477997,4.637499c0,0 4.246002,9.076904 1.158997,12.366604c0.386993,-6.569803 -15.070801,-2.7052 -17.003815,-1.545799c-1.931976,1.159401 -1.54599,-13.744204 -0.77298,-14.130703z" stroke-linejoin="bevel" stroke="#ff007f" fill="#ffaad4" id="path1548"/>
    <path d="m348.63559,37.712173c-24.476013,0.6441 -30.402008,-7.213903 -45.60202,-10.820803c-3.234985,-0.7675 -2.705994,-1.932301 -2.705994,-1.932301c-4.63678,3.7358 -3.8638,9.017405 0,13.526003c0,0 39.03299,8.115601 48.308014,-0.7729z" stroke-linejoin="bevel" stroke="#ff007f" fill="#ffaad4" id="path1544"/>
    <path d="m283.826782,17.069571c-0.07901,1.366529 -0.062988,2.80336 -0.125,4.187601c-0.093994,0.018099 -0.187988,0.044298 -0.282013,0.0625c-1.29599,0.479898 -0.823975,2.394499 -1.092987,3.499998c-0.179993,3.468901 -0.299988,6.981401 0.375,10.406206c0.027008,0.595398 0.299988,0.942497 0.656006,1.1563c0.027985,5.262398 0.144989,10.563099 0.531006,15.7812l2.030975,-0.6875c0.378998,-4.930202 0.595001,-10.242001 0.657013,-15.5937c3.088013,-0.881702 6.286011,-1.498402 9.5,-1.3125c1.505005,-0.304699 1.721008,1.096199 2.342804,2.0937c0.511993,0.794296 1.015991,1.653297 1.718994,2.2813c7.128998,1.450699 14.34201,2.426998 21.594025,3.0312c6.765991,0.482498 13.666992,0.7742 20.343964,-0.6562c2.787018,-0.622002 5.597015,-1.724602 7.562012,-3.875c0.634003,-0.436802 -0.358002,-0.203701 -0.655975,-0.25c-8.564026,0.281097 -17.26004,-0.5182 -25.375,-3.4063c-6.557037,-2.286406 -12.785034,-5.545006 -19.563019,-7.187506c-0.915009,-0.2728 -2.798004,-0.511 -2.936981,-1.2812c1.441986,-0.606499 3.110992,-1.657999 3.218964,-3.374998c0.030029,-1.312302 -1.102966,-2.391272 -2.375,-2.500051c-0.817993,-0.164881 -1.636993,-0.20933 -2.468964,-0.21875c-4.509827,0.05505 -8.976837,0.799511 -13.405823,1.625c-0.089996,-1.088839 -0.134003,-2.215059 -0.25,-3.2813l-2,-0.5zm15.655823,3.1563c1.186981,0.068399 2.554962,-0.036499 3.530975,0.75c0.951996,1.171101 -0.417999,2.4487 -1.405975,3c-0.746033,0.517 -1.507019,0.5585 -2.156036,1c-0.15799,0.6014 -1.193787,1.4911 -1.656799,2.3125c-1.169983,1.791 -1.549988,4.127199 -0.686981,6.125006c0.003998,0.602398 -1.591003,-0.092804 -2.218994,0.0938c-2.796997,0.0294 -5.556,0.5835 -8.25,1.3437c0.000977,-0.231503 -1.949005,-0.113403 -2.363007,0.134998c-1.932007,1.159401 -0.881012,-11.544403 -0.108002,-11.930904c0,0 11.11499,-2.7939 15.314819,-2.8291zm0.343964,6.1875c0.638,1.4949 4.583008,1.1994 6.312012,1.8125c7.644012,2.263102 14.670013,6.300406 22.469025,8.093805c6.043976,1.4743 12.291992,1.9109 18.5,1.8437c-3.52002,2.220398 -7.777039,2.763798 -11.844025,3.0625c-8.752014,0.476097 -17.537994,-0.446899 -26.187012,-1.7187c-2.578979,-0.395901 -5.130981,-0.8578 -7.687988,-1.375c-2.835999,-2.253101 -3.537811,-5.832203 -3.749786,-6.718805c-0.097015,-1.9044 0.908783,-3.663599 2.187775,-5z" stroke-linejoin="bevel" stroke="#ff007f" fill="#ffaad4" id="path1542"/>
   </g>
   <g transform="matrix(1.70125 0 0 1.80202 15.1068 227.413)" id="g2315">
    <path d="m283.323792,22.035688c0,0 18.163818,-4.03278 20.095825,-1.3276c1.932007,2.705202 -3.478027,4.637501 -3.478027,4.637501c0,0 4.246033,9.076904 1.158997,12.366604c0.387024,-6.569803 -15.070801,-2.7052 -17.003784,-1.545799c-1.932007,1.159401 -1.546021,-13.744204 -0.77301,-14.130705z" stroke-linejoin="bevel" stroke="#ff007f" fill="#ffaad4" id="path2317"/>
    <path d="m348.63562,37.712193c-24.476013,0.6441 -30.402039,-7.213903 -45.60202,-10.820803c-3.235016,-0.7675 -2.705994,-1.932301 -2.705994,-1.932301c-4.63678,3.7358 -3.8638,9.017405 0,13.526003c0,0 39.03299,8.115601 48.308014,-0.7729z" stroke-linejoin="bevel" stroke="#ff007f" fill="#ffaad4" id="path2319"/>
    <path d="m283.826782,17.06959c-0.078979,1.366529 -0.062988,2.80336 -0.125,4.187599c-0.093964,0.018101 -0.187988,0.0443 -0.281982,0.0625c-1.296021,0.4799 -0.823975,2.394501 -1.093018,3.5c-0.179993,3.468901 -0.299988,6.981401 0.375,10.406202c0.027039,0.595402 0.300018,0.942501 0.656036,1.156303c0.027985,5.262398 0.720001,11.137398 1.10498,16.355499l1.457001,-1.261803c0.378998,-4.930199 0.595001,-10.241997 0.656982,-15.593697c3.088013,-0.881702 6.286011,-1.498402 9.500031,-1.3125c1.504974,-0.304703 1.720978,1.096199 2.342804,2.093697c0.511993,0.794304 1.015991,1.653301 1.718994,2.281303c7.128967,1.450699 14.34198,2.426998 21.593994,3.031197c6.765991,0.482502 13.666992,0.7742 20.343994,-0.656197c2.786987,-0.622002 5.596985,-1.724602 7.562012,-3.875c0.633972,-0.436802 -0.358032,-0.203701 -0.656006,-0.25c-8.564026,0.281097 -17.26001,-0.518204 -25.375,-3.406303c-6.557007,-2.286402 -12.785004,-5.545002 -19.562988,-7.187502c-0.915039,-0.2728 -2.798035,-0.511 -2.937012,-1.2812c1.442017,-0.606499 3.110992,-1.657999 3.218994,-3.375c0.029999,-1.3123 -1.102997,-2.39127 -2.375,-2.50005c-0.817993,-0.164881 -1.636993,-0.20933 -2.468994,-0.21875c-4.509796,0.05505 -8.976807,0.799509 -13.405823,1.625c-0.089966,-1.08884 -0.133972,-2.215059 -0.25,-3.2813l-2,-0.5zm15.655823,3.1563c1.187012,0.068399 2.554993,-0.036501 3.531006,0.75c0.951965,1.171099 -0.417999,2.4487 -1.406006,3c-0.746002,0.517 -1.507019,0.5585 -2.156006,1c-0.15799,0.6014 -1.193787,1.4911 -1.656799,2.3125c-1.169983,1.791 -1.549988,4.127201 -0.686981,6.125002c0.003998,0.602402 -1.591034,-0.092796 -2.219025,0.093803c-2.796997,0.0294 -5.555969,0.583496 -8.25,1.343697c0.001007,-0.231499 -1.948975,-0.113396 -2.362976,0.135002c-1.932007,1.159401 -0.881042,-11.544403 -0.108032,-11.930904c0,0 11.11499,-2.7939 15.314819,-2.8291zm0.343994,6.1875c0.638,1.4949 4.583008,1.1994 6.312012,1.8125c7.644012,2.2631 14.669983,6.300402 22.468994,8.093805c6.044006,1.4743 12.291992,1.9109 18.5,1.843697c-3.52002,2.220402 -7.777008,2.763802 -11.843994,3.0625c-8.752014,0.476101 -17.538025,-0.446899 -26.187012,-1.718697c-2.578979,-0.395901 -5.130981,-0.8578 -7.687988,-1.375c-2.835999,-2.253101 -3.537811,-5.832203 -3.749817,-6.718805c-0.096985,-1.9044 0.908813,-3.663601 2.187805,-5z" stroke-linejoin="bevel" stroke="#ff007f" fill="#ffaad4" id="path2321"/>
   </g>
   <g transform="matrix(1.70125 0 0 1.80202 75.6278 457.803)" id="g2327">
    <path d="m283.323792,22.035704c0,0 18.163818,-4.03278 20.095825,-1.327599c1.931976,2.7052 -3.478027,4.637499 -3.478027,4.637499c0,0 4.246002,9.0769 1.158997,12.366596c0.387024,-6.569796 -15.070801,-2.7052 -17.003784,-1.545799c-1.932007,1.159401 -1.546021,-13.744196 -0.77301,-14.130697z" stroke-linejoin="bevel" stroke="#ff007f" fill="#ffaad4" id="path2329"/>
    <path d="m348.63559,37.7122c-24.475983,0.644085 -30.402008,-7.213896 -45.60199,-10.820795c-3.235016,-0.767502 -2.706024,-1.932301 -2.706024,-1.932301c-4.63678,3.7358 -3.86377,9.017397 0,13.525976c0,0 39.03302,8.115601 48.308014,-0.772881z" stroke-linejoin="bevel" stroke="#ff007f" fill="#ffaad4" id="path2331"/>
    <path d="m283.826782,17.069685c-0.078979,1.366449 -0.062988,2.80328 -0.125,4.187519c-0.093964,0.018101 -0.187988,0.0443 -0.281982,0.0625c-1.296021,0.4799 -0.824005,2.394501 -1.093018,3.5c-0.179993,3.468901 -0.299988,6.9814 0.375,10.406199c0.027008,0.595398 0.299988,0.942497 0.656036,1.1563c0.027985,5.262379 0.144989,10.56308 0.530975,15.781178l2.031006,-0.6875c0.378967,-4.930199 0.594971,-10.241997 0.656982,-15.593678c3.088013,-0.881699 6.286011,-1.498402 9.5,-1.3125c1.505005,-0.304699 1.721008,1.096203 2.342834,2.0937c0.511963,0.7943 1.015991,1.653282 1.718994,2.281281c7.128967,1.450699 14.34198,2.427002 21.593994,3.031197c6.765991,0.482502 13.666992,0.774204 20.343994,-0.656197c2.786987,-0.622002 5.596985,-1.724602 7.562012,-3.874981c0.633972,-0.436798 -0.358032,-0.203701 -0.656006,-0.25c-8.564026,0.281101 -17.26001,-0.5182 -25.375,-3.4063c-6.557007,-2.286398 -12.785034,-5.544998 -19.562988,-7.187498c-0.915039,-0.2728 -2.798035,-0.511 -2.937012,-1.2812c1.441986,-0.606499 3.110992,-1.658001 3.218994,-3.375c0.029999,-1.3123 -1.102997,-2.39127 -2.375,-2.50005c-0.817993,-0.164881 -1.637024,-0.20933 -2.468994,-0.21875c-4.509827,0.05505 -8.976807,0.799511 -13.405823,1.625c-0.089966,-1.08884 -0.133972,-2.215059 -0.25,-3.281219l-2,-0.5zm15.655823,3.156219c1.187012,0.068399 2.554993,-0.036499 3.531006,0.75c0.951965,1.171101 -0.417999,2.4487 -1.406006,3c-0.746033,0.517 -1.507019,0.5585 -2.156006,1c-0.15802,0.6014 -1.193787,1.4911 -1.656799,2.3125c-1.169983,1.791 -1.549988,4.127201 -0.686981,6.124998c0.003998,0.602402 -1.591034,-0.0928 -2.219025,0.0938c-2.796997,0.0294 -5.556,0.5835 -8.25,1.3437c0.000977,-0.231499 -1.948975,-0.1134 -2.362976,0.135002c-1.932007,1.159397 -0.881042,-11.544401 -0.108032,-11.930901c0,0 11.11499,-2.7939 15.314819,-2.8291zm0.343994,6.1875c0.638,1.4949 4.583008,1.1994 6.312012,1.8125c7.643982,2.2631 14.669983,6.300398 22.468994,8.093798c6.044006,1.474277 12.291992,1.910881 18.5,1.843681c-3.52002,2.220398 -7.777039,2.763798 -11.843994,3.062496c-8.752014,0.476105 -17.538025,-0.446899 -26.187012,-1.718697c-2.578979,-0.395901 -5.130981,-0.8578 -7.687988,-1.375c-2.835999,-2.253082 -3.537842,-5.83218 -3.749817,-6.718779c-0.096985,-1.9044 0.908813,-3.663601 2.187805,-5z" stroke-linejoin="bevel" stroke="#ff007f" fill="#ffaad4" id="path2333"/>
   </g>
   <g transform="matrix(1.70125 0 0 1.80202 130.792 708.819)" id="g2339">
    <path d="m283.323792,22.03569c0,0 18.163818,-4.03278 20.095825,-1.3276c1.931976,2.7052 -3.477997,4.637501 -3.477997,4.637501c0,0 4.245972,9.076899 1.158997,12.366598c0.386993,-6.569798 -15.070801,-2.705196 -17.003815,-1.545799c-1.932007,1.159401 -1.54599,-13.7442 -0.77301,-14.130699z" stroke-linejoin="bevel" stroke="#ff007f" fill="#ffaad4" id="path2341"/>
    <path d="m348.63559,37.712189c-24.475983,0.644093 -30.401978,-7.213898 -45.60199,-10.820799c-3.234985,-0.7675 -2.705994,-1.932299 -2.705994,-1.932299c-4.63681,3.7358 -3.8638,9.017399 0,13.52599c0,0 39.03299,8.115601 48.307983,-0.772892z" stroke-linejoin="bevel" stroke="#ff007f" fill="#ffaad4" id="path2343"/>
    <path d="m283.826813,17.069681c-0.07901,1.366438 -0.063019,2.80327 -0.125,4.18751c-0.093994,0.018099 -0.188019,0.0443 -0.282013,0.0625c-1.29599,0.4799 -0.824005,2.394499 -1.092987,3.5c-0.179993,3.468899 -0.300018,6.9814 0.375,10.4062c0.026978,0.595398 0.299988,0.942501 0.656006,1.1563c0.027985,5.26239 0.144989,10.563091 0.530975,15.781189l2.031006,-0.6875c0.378998,-4.930199 0.595001,-10.241997 0.657013,-15.593689c3.087982,-0.881699 6.28598,-1.498402 9.5,-1.3125c1.505005,-0.304703 1.720978,1.096199 2.342804,2.0937c0.511993,0.7943 1.015991,1.65329 1.718994,2.281288c7.128998,1.450703 14.34198,2.427002 21.593994,3.0312c6.765991,0.482498 13.666992,0.7742 20.343994,-0.656197c2.786987,-0.622002 5.597015,-1.724602 7.562012,-3.874992c0.634003,-0.436802 -0.358032,-0.203701 -0.656006,-0.25c-8.563995,0.281097 -17.26001,-0.5182 -25.375,-3.4063c-6.557007,-2.2864 -12.785004,-5.545002 -19.562988,-7.1875c-0.915009,-0.2728 -2.798004,-0.511002 -2.937012,-1.2812c1.441986,-0.606501 3.110992,-1.658001 3.218994,-3.375c0.029999,-1.3123 -1.102997,-2.39127 -2.375,-2.50005c-0.817993,-0.164881 -1.636993,-0.209332 -2.468994,-0.21875c-4.509796,0.05505 -8.976807,0.799509 -13.405792,1.625c-0.089996,-1.08884 -0.134003,-2.215061 -0.25,-3.281212l-2,-0.499998zm15.655792,3.15621c1.187012,0.068399 2.554993,-0.036501 3.531006,0.75c0.951996,1.171099 -0.417999,2.4487 -1.406006,3c-0.746002,0.516998 -1.506989,0.558498 -2.156006,1c-0.15799,0.601398 -1.193787,1.491098 -1.656799,2.3125c-1.169983,1.791 -1.549988,4.127199 -0.686981,6.125c0.003998,0.602398 -1.591003,-0.0928 -2.219025,0.0938c-2.796997,0.0294 -5.556,0.5835 -8.25,1.3437c0.001007,-0.231503 -1.948975,-0.1134 -2.362976,0.134998c-1.932007,1.159401 -0.881012,-11.544399 -0.108002,-11.930899c0,0 11.11499,-2.793901 15.314789,-2.8291zm0.343994,6.1875c0.638,1.4949 4.583008,1.1994 6.312012,1.8125c7.643982,2.2631 14.669983,6.3004 22.468994,8.0938c6.044006,1.474289 12.291992,1.910889 18.5,1.843689c-3.519989,2.220398 -7.777008,2.763802 -11.843994,3.0625c-8.752014,0.476101 -17.537994,-0.446899 -26.187012,-1.7187c-2.578979,-0.395901 -5.130981,-0.8578 -7.687988,-1.375c-2.835999,-2.25309 -3.537811,-5.832188 -3.749817,-6.718788c-0.096985,-1.9044 0.908813,-3.663601 2.187805,-5z" stroke-linejoin="bevel" stroke="#ff007f" fill="#ffaad4" id="path2345"/>
   </g>
   <g transform="matrix(1.70125 0 0 1.80202 -91.0951 151.727)" id="g2351">
    <path d="m283.323792,22.035677c0,0 18.163788,-4.03278 20.095795,-1.3276c1.932007,2.7052 -3.477997,4.637501 -3.477997,4.637501c0,0 4.246002,9.076897 1.158997,12.3666c0.386993,-6.569799 -15.070801,-2.7052 -17.003815,-1.545803c-1.931976,1.159401 -1.54599,-13.744198 -0.77298,-14.130697z" stroke-linejoin="bevel" stroke="#ff007f" fill="#ffaad4" id="path2353"/>
    <path d="m348.63559,37.712177c-24.476013,0.644096 -30.402008,-7.2139 -45.60202,-10.820801c-3.234985,-0.7675 -2.705994,-1.932301 -2.705994,-1.932301c-4.63678,3.7358 -3.8638,9.017399 0,13.525997c0,0 39.03299,8.115601 48.308014,-0.772896z" stroke-linejoin="bevel" stroke="#ff007f" fill="#ffaad4" id="path2355"/>
    <path d="m283.826782,17.069576c-0.07901,1.366529 -0.062988,2.80336 -0.125,4.187601c-0.093994,0.018099 -0.187988,0.0443 -0.282013,0.0625c-1.29599,0.4799 -0.823975,2.394499 -1.092987,3.5c-0.179993,3.468899 -0.299988,6.9814 0.375,10.406199c0.027008,0.595398 0.299988,0.942501 0.656006,1.1563c0.027985,5.262402 0.144989,10.563099 0.531006,15.7812l0.882996,0.461201c0.378998,-4.930202 0.307007,-11.677902 0.368988,-17.029602c3.088013,-0.881599 7.722015,-1.211201 10.936005,-1.025299c1.505005,-0.304703 1.721008,1.096199 2.342804,2.0937c0.511993,0.7943 1.015991,1.653301 1.718994,2.2813c7.128998,1.450699 14.34201,2.427002 21.594025,3.0312c6.765991,0.482498 13.666992,0.774197 20.343964,-0.6562c2.787018,-0.622002 5.597015,-1.724598 7.562012,-3.875c0.634003,-0.436798 -0.358002,-0.203701 -0.655975,-0.25c-8.564026,0.281097 -17.26004,-0.5182 -25.375,-3.4063c-6.557037,-2.286398 -12.785034,-5.544998 -19.563019,-7.187498c-0.915009,-0.2728 -2.798004,-0.511002 -2.936981,-1.2812c1.441986,-0.606501 3.110992,-1.658001 3.218964,-3.375c0.030029,-1.312302 -1.102966,-2.391272 -2.375,-2.500051c-0.817993,-0.164879 -1.636993,-0.20933 -2.468964,-0.21875c-4.509827,0.05505 -8.976837,0.799511 -13.405823,1.625002c-0.089996,-1.08884 -0.134003,-2.215061 -0.25,-3.281301l-2,-0.5zm15.655823,3.156301c1.186981,0.068399 2.554962,-0.036501 3.530975,0.75c0.951996,1.171099 -0.417999,2.4487 -1.405975,2.999998c-0.746033,0.517 -1.507019,0.5585 -2.156036,1c-0.15799,0.6014 -1.193787,1.4911 -1.656799,2.3125c-1.169983,1.791 -1.549988,4.127201 -0.686981,6.125c0.003998,0.602398 -1.591003,-0.0928 -2.218994,0.0938c-2.796997,0.0294 -5.556,0.5835 -8.25,1.3437c0.000977,-0.231503 -1.949005,-0.1134 -2.363007,0.134998c-1.932007,1.159401 -0.881012,-11.544397 -0.108002,-11.930899c0,0 11.11499,-2.7939 15.314819,-2.829098zm0.343964,6.187498c0.638,1.494902 4.583008,1.1994 6.312012,1.8125c7.644012,2.263102 14.670013,6.3004 22.469025,8.0938c6.043976,1.474297 12.291992,1.9109 18.5,1.8437c-3.52002,2.220398 -7.777039,2.763798 -11.844025,3.0625c-8.752014,0.476101 -17.537994,-0.446899 -26.187012,-1.7187c-2.578979,-0.395901 -5.130981,-0.8578 -7.687988,-1.375c-2.835999,-2.253101 -3.537811,-5.832199 -3.749786,-6.718798c-0.097015,-1.9044 0.908783,-3.663601 2.187775,-5.000002z" stroke-linejoin="bevel" stroke="#ff007f" fill="#ffaad4" id="path2357"/>
   </g>
   <g transform="matrix(1.70125 0 0 1.80202 -146.765 378.781)" id="g2363">
    <path d="m283.323792,22.03565c0,0 18.163818,-4.03278 20.095825,-1.3276c1.931976,2.705202 -3.478027,4.637501 -3.478027,4.637501c0,0 4.246002,9.0769 1.158997,12.3666c0.387024,-6.569799 -15.070801,-2.7052 -17.003784,-1.545799c-1.932007,1.159397 -1.546021,-13.7442 -0.77301,-14.130701z" stroke-linejoin="bevel" stroke="#ff007f" fill="#ffaad4" id="path2365"/>
    <path d="m348.63559,37.712151c-24.475983,0.6441 -30.402008,-7.2139 -45.60199,-10.820799c-3.235016,-0.7675 -2.706024,-1.932301 -2.706024,-1.932301c-4.63678,3.7358 -3.86377,9.017401 0,13.525999c0,0 39.03302,8.115601 48.308014,-0.7729z" stroke-linejoin="bevel" stroke="#ff007f" fill="#ffaad4" id="path2367"/>
    <path d="m283.826782,17.069551c-0.078979,1.366529 -0.062988,2.80336 -0.125,4.187599c-0.093964,0.018101 -0.187988,0.0443 -0.281982,0.0625c-1.296021,0.4799 -0.824005,2.394501 -1.093018,3.5c-0.179993,3.468901 -0.299988,6.981401 0.375,10.406199c0.027008,0.595402 0.299988,0.942501 0.656036,1.156303c0.027985,5.262398 0.144989,10.563099 0.530975,15.781197l2.031006,-0.6875c0.378967,-4.930199 0.594971,-10.241997 0.656982,-15.593697c3.088013,-0.881702 6.286011,-1.498402 9.5,-1.3125c1.505005,-0.304703 1.721008,1.096199 2.342834,2.093697c0.511963,0.794304 1.015991,1.653301 1.718994,2.281303c7.128967,1.450699 14.34198,2.426998 21.593994,3.031197c6.765991,0.482502 13.666992,0.7742 20.343994,-0.656197c2.786987,-0.622002 5.596985,-1.724602 7.562012,-3.875c0.633972,-0.436802 -0.358032,-0.203701 -0.656006,-0.25c-8.564026,0.281097 -17.26001,-0.518204 -25.375,-3.406303c-6.557007,-2.286398 -12.785034,-5.544998 -19.562988,-7.187498c-0.915039,-0.2728 -2.798035,-0.511 -2.937012,-1.2812c1.441986,-0.606501 3.110992,-1.657999 3.218994,-3.375c0.029999,-1.3123 -1.102997,-2.39127 -2.375,-2.50005c-0.817993,-0.164881 -1.637024,-0.20933 -2.468994,-0.21875c-4.509827,0.05505 -8.976807,0.799511 -13.405823,1.625c-0.089966,-1.08884 -0.133972,-2.215059 -0.25,-3.2813l-2,-0.5zm15.655823,3.1563c1.187012,0.068399 2.554993,-0.036501 3.531006,0.75c0.951965,1.171099 -0.417999,2.4487 -1.406006,3c-0.746033,0.517 -1.507019,0.5585 -2.156006,1c-0.15802,0.6014 -1.193787,1.4911 -1.656799,2.3125c-1.169983,1.791 -1.549988,4.127201 -0.686981,6.124998c0.003998,0.602402 -1.591034,-0.092796 -2.219025,0.093803c-2.796997,0.029396 -5.556,0.583496 -8.25,1.343697c0.000977,-0.231499 -1.948975,-0.113396 -2.362976,0.135002c-1.932007,1.159401 -0.881042,-11.544399 -0.108032,-11.930901c0,0 11.11499,-2.7939 15.314819,-2.8291zm0.343994,6.1875c0.638,1.4949 4.583008,1.1994 6.312012,1.8125c7.643982,2.2631 14.669983,6.300398 22.468994,8.093801c6.044006,1.474297 12.291992,1.9109 18.5,1.843697c-3.52002,2.220402 -7.777039,2.763802 -11.843994,3.0625c-8.752014,0.476101 -17.538025,-0.446899 -26.187012,-1.718697c-2.578979,-0.395901 -5.130981,-0.857803 -7.687988,-1.375c-2.835999,-2.253101 -3.537842,-5.832203 -3.749817,-6.718801c-0.096985,-1.9044 0.908813,-3.663601 2.187805,-5z" stroke-linejoin="bevel" stroke="#ff007f" fill="#ffaad4" id="path2369"/>
   </g>
   <g transform="matrix(1.70125 0 0 1.80202 -208.499 708.301)" id="g2375">
    <path d="m283.323792,22.035671c0,0 18.163818,-4.03278 20.095825,-1.3276c1.931976,2.7052 -3.478027,4.637501 -3.478027,4.637501c0,0 4.246002,9.076899 1.158997,12.366598c0.387024,-6.569798 -15.070801,-2.705196 -17.003784,-1.545799c-1.932007,1.159401 -1.546021,-13.7442 -0.77301,-14.130699z" stroke-linejoin="bevel" stroke="#ff007f" fill="#ffaad4" id="path2377"/>
    <path d="m348.63559,37.71217c-24.475983,0.644093 -30.402008,-7.213898 -45.60199,-10.820799c-3.235016,-0.7675 -2.706024,-1.932301 -2.706024,-1.932301c-4.63678,3.7358 -3.86377,9.017401 0,13.525991c0,0 39.03302,8.115601 48.308014,-0.772892z" stroke-linejoin="bevel" stroke="#ff007f" fill="#ffaad4" id="path2379"/>
    <path d="m283.826782,17.069662c-0.078979,1.366438 -0.062988,2.803268 -0.125,4.18751c-0.093964,0.018099 -0.187988,0.0443 -0.281982,0.0625c-1.296021,0.4799 -0.824005,2.394499 -1.093018,3.5c-0.179993,3.468899 -0.299988,6.9814 0.375,10.4062c0.027008,0.595398 0.299988,0.942501 0.656036,1.1563c0.027985,5.26239 0.144989,10.563087 0.530975,15.781189l2.031006,-0.6875c0.378967,-4.930199 0.594971,-10.241997 0.656982,-15.593689c3.088013,-0.881699 6.286011,-1.498402 9.5,-1.3125c1.505005,-0.304699 1.721008,1.096199 2.342834,2.0937c0.511963,0.7943 1.015991,1.65329 1.718994,2.281288c7.128967,1.450703 14.34198,2.427002 21.593994,3.0312c6.765991,0.482498 13.666992,0.7742 20.343994,-0.6562c2.786987,-0.621998 5.596985,-1.724598 7.562012,-3.874989c0.633972,-0.436802 -0.358032,-0.203701 -0.656006,-0.25c-8.564026,0.281097 -17.26001,-0.5182 -25.375,-3.4063c-6.557007,-2.2864 -12.785034,-5.545002 -19.562988,-7.1875c-0.915039,-0.2728 -2.798035,-0.511002 -2.937012,-1.2812c1.441986,-0.606501 3.110992,-1.658001 3.218994,-3.375c0.029999,-1.312302 -1.102997,-2.39127 -2.375,-2.50005c-0.817993,-0.164881 -1.637024,-0.209332 -2.468994,-0.21875c-4.509827,0.05505 -8.976807,0.799509 -13.405823,1.625c-0.089966,-1.08884 -0.133972,-2.215061 -0.25,-3.28121l-2,-0.5zm15.655823,3.15621c1.187012,0.068399 2.554993,-0.036501 3.531006,0.75c0.951965,1.171099 -0.417999,2.4487 -1.406006,2.999998c-0.746033,0.517 -1.507019,0.5585 -2.156006,1c-0.15802,0.6014 -1.193787,1.4911 -1.656799,2.3125c-1.169983,1.791 -1.549988,4.127201 -0.686981,6.125002c0.003998,0.602398 -1.591034,-0.0928 -2.219025,0.0938c-2.796997,0.0294 -5.556,0.5835 -8.25,1.3437c0.000977,-0.231503 -1.948975,-0.1134 -2.362976,0.134998c-1.932007,1.159401 -0.881042,-11.544399 -0.108032,-11.930901c0,0 11.11499,-2.7939 15.314819,-2.829098zm0.343994,6.187498c0.638,1.494902 4.583008,1.1994 6.312012,1.8125c7.643982,2.263102 14.669983,6.300402 22.468994,8.093801c6.044006,1.474289 12.291992,1.910889 18.5,1.843689c-3.52002,2.220398 -7.777039,2.763802 -11.843994,3.0625c-8.752014,0.476101 -17.538025,-0.446899 -26.187012,-1.7187c-2.578979,-0.395901 -5.130981,-0.8578 -7.687988,-1.375c-2.835999,-2.25309 -3.537842,-5.832188 -3.749817,-6.718788c-0.096985,-1.9044 0.908813,-3.663601 2.187805,-5.000002z" stroke-linejoin="bevel" stroke="#ff007f" fill="#ffaad4" id="path2381"/>
   </g>
  </g>
 </g>
</svg>